<?xml version="1.0" encoding="utf-8" standalone="no"?>
<!DOCTYPE svg PUBLIC "-//W3C//DTD SVG 1.1//EN"
  "http://www.w3.org/Graphics/SVG/1.1/DTD/svg11.dtd">
<!-- Created with matplotlib (http://matplotlib.org/) -->
<svg height="1080pt" version="1.1" viewBox="0 0 1080 1080" width="1080pt" xmlns="http://www.w3.org/2000/svg" xmlns:xlink="http://www.w3.org/1999/xlink">
 <defs>
  <style type="text/css">
*{stroke-linecap:butt;stroke-linejoin:round;stroke-miterlimit:100000;}
  </style>
 </defs>
 <g id="figure_1">
  <g id="patch_1">
   <path d="M 0 1080 
L 1080 1080 
L 1080 0 
L 0 0 
z
" style="fill:#ffffff;"/>
  </g>
  <g id="axes_1">
   <g id="patch_2">
    <path d="M 135 945 
L 972 945 
L 972 108 
L 135 108 
z
" style="fill:#ffffff;"/>
   </g>
   <g id="line2d_1">
    <path clip-path="url(#p65c51a1cfb)" d="M 301.005 917.498532 
L 316.35 911.055169 
L 382.6125 874.146059 
L 407.025 858.436017 
L 421.6725 849.15529 
L 421.6725 849.15529 
L 432.135 842.786146 
L 441.2025 837.535708 
L 448.875 833.342886 
L 456.5475 829.422838 
L 463.5225 826.129213 
L 469.8 823.408978 
L 476.775 820.681783 
L 482.355 818.739489 
L 488.6325 816.823855 
L 496.305 814.889508 
L 501.1875 813.900864 
L 517.9275 812.003629 
L 517.9275 812.003629 
L 522.1125 811.898644 
L 533.2725 812.34738 
L 536.0625 812.624338 
L 542.34 813.485205 
L 549.315 814.820884 
L 554.895 816.168862 
L 561.1725 817.971666 
L 565.3575 819.335735 
L 573.03 822.156832 
L 578.61 824.454338 
L 589.0725 829.270383 
L 598.8375 834.293726 
L 605.8125 838.147853 
L 605.8125 838.147853 
L 612.7875 842.188495 
L 628.83 852.017066 
L 645.57 862.730464 
L 686.025 888.167708 
L 693 892.24067 
L 702.765 897.705274 
L 716.715 904.970875 
L 724.3875 908.672973 
L 724.3875 908.672973 
L 732.7575 912.462393 
L 742.5225 916.548467 
L 751.59 920.01871 
L 760.6575 923.180829 
L 775.305 927.659454 
L 781.5825 929.351385 
L 794.1375 932.352186 
L 806.6925 934.880181 
L 808.0875 935.133981 
L 830.4075 938.539129 
L 882.72 942.88593 
L 882.72 942.88593 
" style="fill:none;stroke:#0000ff;stroke-linecap:square;"/>
   </g>
   <g id="line2d_2">
    <path clip-path="url(#p65c51a1cfb)" d="M 368.6625 852.260056 
L 387.495 766.543759 
L 397.26 713.10182 
L 405.63 666.68896 
L 405.63 666.68896 
L 410.5125 640.941474 
L 410.5125 640.941474 
L 414 623.715756 
L 414 623.715756 
L 416.79 610.861931 
L 416.79 610.861931 
L 419.58 598.990845 
L 419.58 598.990845 
L 422.37 588.241508 
L 422.37 588.241508 
L 424.4625 580.993646 
L 424.4625 580.993646 
L 426.555 574.499347 
L 426.555 574.499347 
L 428.6475 568.803838 
L 428.6475 568.803838 
L 430.74 563.947241 
L 430.74 563.947241 
L 432.135 561.19287 
L 433.53 558.835594 
L 433.53 558.835594 
L 434.925 556.882953 
L 434.925 556.882953 
L 436.32 555.341216 
L 436.32 555.341216 
L 437.715 554.215349 
L 439.11 553.508984 
L 440.505 553.224406 
L 440.505 553.224406 
L 441.9 553.362536 
L 441.9 553.362536 
L 443.295 553.922926 
L 443.295 553.922926 
L 443.9925 554.360956 
L 446.085 556.301884 
L 446.7825 557.156067 
L 446.7825 557.156067 
L 449.5725 561.589982 
L 449.5725 561.589982 
L 450.27 562.948317 
L 450.27 562.948317 
L 452.3625 567.605983 
L 452.3625 567.605983 
L 454.455 573.111051 
L 456.5475 579.424651 
L 460.035 591.622145 
L 463.5225 605.70909 
L 467.7075 624.738512 
L 469.8 634.980497 
L 475.38 664.074494 
L 480.96 694.796301 
L 494.2125 767.670781 
L 498.3975 789.12483 
L 507.465 830.984357 
L 510.255 842.389497 
L 515.1375 860.554163 
L 515.1375 860.554163 
L 520.7175 878.496248 
L 527.6925 896.84574 
L 532.575 907.198031 
L 534.6675 911.060523 
L 545.8275 926.666552 
L 558.3825 936.557073 
L 573.7275 942.093645 
L 576.5175 942.639266 
L 582.795 943.544495 
L 589.0725 944.122012 
L 643.4775 944.995601 
L 672.7725 944.999871 
L 672.7725 944.999871 
" style="fill:none;stroke:#0000ff;stroke-dasharray:6.000000,6.000000;stroke-dashoffset:0.0;"/>
   </g>
   <g id="line2d_3">
    <path clip-path="url(#p65c51a1cfb)" d="M 248.6925 939.96926 
L 274.5 935.131337 
L 340.065 905.322785 
L 342.855 903.32978 
L 374.94 876.038106 
L 383.31 867.764244 
L 396.5625 853.99246 
L 407.025 842.771608 
L 408.42 841.266295 
L 409.1175 840.513503 
L 432.135 816.171799 
L 433.53 814.763679 
L 433.53 814.763679 
L 452.3625 797.218449 
L 462.1275 789.548617 
L 465.615 787.10474 
L 469.1025 784.830949 
L 470.4975 783.970958 
L 474.6825 781.567422 
L 476.0775 780.826657 
L 476.0775 780.826657 
L 476.775 780.46786 
L 476.775 780.46786 
L 478.17 779.773707 
L 478.17 779.773707 
L 479.565 779.11116 
L 479.565 779.11116 
L 480.2625 778.791865 
L 481.6575 778.177475 
L 484.4475 777.046784 
L 485.8425 776.531178 
L 486.54 776.285951 
L 487.935 775.820839 
L 487.935 775.820839 
L 489.33 775.389752 
L 489.33 775.389752 
L 490.0275 775.187053 
L 490.725 774.992959 
L 491.4225 774.807499 
L 491.4225 774.807499 
L 495.6075 773.877589 
L 496.305 773.753303 
L 497.0025 773.637845 
L 497.7 773.531231 
L 497.7 773.531231 
L 501.1875 773.131376 
L 506.7675 772.955844 
L 515.835 773.88997 
L 523.5075 775.842364 
L 526.995 777.072344 
L 526.995 777.072344 
L 529.785 778.206191 
L 533.97 780.150177 
L 536.76 781.603708 
L 536.76 781.603708 
L 545.8275 787.150036 
L 550.71 790.621501 
L 555.5925 794.401115 
L 560.475 798.46232 
L 562.5675 800.282143 
L 575.1225 812.050211 
L 582.0975 819.090038 
L 586.2825 823.437738 
L 589.0725 826.376001 
L 605.8125 844.348142 
L 621.1575 860.670125 
L 642.78 882.028976 
L 665.1 900.799428 
L 669.9825 904.382019 
L 722.295 931.007107 
L 739.035 935.646814 
L 780.885 942.003334 
L 800.415 943.347611 
" style="fill:none;stroke:#00ff00;stroke-linecap:square;"/>
   </g>
   <g id="line2d_4">
    <path clip-path="url(#p65c51a1cfb)" d="M 446.085 855.390494 
L 455.85 724.107359 
L 455.85 724.107359 
L 458.64 671.183749 
L 461.43 612.004598 
L 462.1275 596.352722 
L 463.5225 564.174246 
L 463.5225 564.174246 
L 464.9175 531.008329 
L 467.7075 462.721419 
L 467.7075 462.721419 
L 468.405 445.451274 
L 471.195 376.787828 
L 473.2875 326.963887 
L 474.6825 295.235506 
L 475.38 279.958097 
L 476.0775 265.133941 
L 477.4725 237.028123 
L 479.565 199.384649 
L 479.565 199.384649 
L 479.565 199.384649 
L 480.2625 188.207041 
L 481.6575 168.135076 
L 481.6575 168.135076 
L 482.355 159.309139 
L 482.355 159.309139 
L 482.355 159.309139 
L 482.355 159.309139 
L 483.0525 151.331388 
L 483.0525 151.331388 
L 484.4475 138.028571 
L 485.145 132.750209 
L 485.145 132.750209 
L 485.145 132.750209 
L 485.145 132.750209 
L 485.8425 128.413166 
L 485.8425 128.413166 
L 486.54 125.03285 
L 486.54 125.03285 
L 487.935 121.187152 
L 488.6325 120.735516 
L 488.6325 120.735516 
L 489.33 121.268016 
L 489.33 121.268016 
L 490.0275 122.782745 
L 491.4225 128.733737 
L 492.12 133.148775 
L 492.12 133.148775 
L 493.515 144.779629 
L 494.2125 151.954414 
L 495.6075 168.897295 
L 496.305 178.606712 
L 496.305 178.606712 
L 497.7 200.335535 
L 497.7 200.335535 
L 497.7 200.335535 
L 499.7925 238.139195 
L 499.7925 238.139195 
L 500.49 251.966404 
L 501.885 281.197307 
L 502.5825 296.50991 
L 503.9775 328.297148 
L 504.675 344.678031 
L 504.675 344.678031 
L 505.3725 361.321317 
L 506.7675 395.209832 
L 514.44 581.722694 
L 515.1375 597.65082 
L 515.1375 597.65082 
L 526.995 809.984477 
L 544.4325 927.029073 
L 550.0125 936.94911 
L 561.87 943.866088 
" style="fill:none;stroke:#00ff00;stroke-dasharray:6.000000,6.000000;stroke-dashoffset:0.0;"/>
   </g>
   <g id="patch_3">
    <path d="M 135 108 
L 972 108 
" style="fill:none;stroke:#000000;stroke-linecap:square;stroke-linejoin:miter;"/>
   </g>
   <g id="patch_4">
    <path d="M 972 945 
L 972 108 
" style="fill:none;stroke:#000000;stroke-linecap:square;stroke-linejoin:miter;"/>
   </g>
   <g id="patch_5">
    <path d="M 135 945 
L 972 945 
" style="fill:none;stroke:#000000;stroke-linecap:square;stroke-linejoin:miter;"/>
   </g>
   <g id="patch_6">
    <path d="M 135 945 
L 135 108 
" style="fill:none;stroke:#000000;stroke-linecap:square;stroke-linejoin:miter;"/>
   </g>
   <g id="matplotlib.axis_1">
    <g id="xtick_1">
     <g id="line2d_5">
      <defs>
       <path d="M 0 0 
L 0 -4 
" id="m190f6bc9a7" style="stroke:#000000;stroke-width:0.5;"/>
      </defs>
      <g>
       <use style="stroke:#000000;stroke-width:0.5;" x="135.0" xlink:href="#m190f6bc9a7" y="945.0"/>
      </g>
     </g>
     <g id="line2d_6">
      <defs>
       <path d="M 0 0 
L 0 4 
" id="m8343ff6ccd" style="stroke:#000000;stroke-width:0.5;"/>
      </defs>
      <g>
       <use style="stroke:#000000;stroke-width:0.5;" x="135.0" xlink:href="#m8343ff6ccd" y="108.0"/>
      </g>
     </g>
     <g id="text_1">
      <!-- −0.4 -->
      <defs>
       <path d="M 10.59375 35.5 
L 73.1875 35.5 
L 73.1875 27.203125 
L 10.59375 27.203125 
z
" id="BitstreamVeraSans-Roman-2212"/>
       <path d="M 31.78125 66.40625 
Q 24.171875 66.40625 20.328125 58.90625 
Q 16.5 51.421875 16.5 36.375 
Q 16.5 21.390625 20.328125 13.890625 
Q 24.171875 6.390625 31.78125 6.390625 
Q 39.453125 6.390625 43.28125 13.890625 
Q 47.125 21.390625 47.125 36.375 
Q 47.125 51.421875 43.28125 58.90625 
Q 39.453125 66.40625 31.78125 66.40625 
M 31.78125 74.21875 
Q 44.046875 74.21875 50.515625 64.515625 
Q 56.984375 54.828125 56.984375 36.375 
Q 56.984375 17.96875 50.515625 8.265625 
Q 44.046875 -1.421875 31.78125 -1.421875 
Q 19.53125 -1.421875 13.0625 8.265625 
Q 6.59375 17.96875 6.59375 36.375 
Q 6.59375 54.828125 13.0625 64.515625 
Q 19.53125 74.21875 31.78125 74.21875 
" id="BitstreamVeraSans-Roman-30"/>
       <path d="M 10.6875 12.40625 
L 21 12.40625 
L 21 0 
L 10.6875 0 
z
" id="BitstreamVeraSans-Roman-2e"/>
       <path d="M 37.796875 64.3125 
L 12.890625 25.390625 
L 37.796875 25.390625 
z
M 35.203125 72.90625 
L 47.609375 72.90625 
L 47.609375 25.390625 
L 58.015625 25.390625 
L 58.015625 17.1875 
L 47.609375 17.1875 
L 47.609375 0 
L 37.796875 0 
L 37.796875 17.1875 
L 4.890625 17.1875 
L 4.890625 26.703125 
z
" id="BitstreamVeraSans-Roman-34"/>
      </defs>
      <g transform="translate(122.85859375 956.5984375)scale(0.1 -0.1)">
       <use xlink:href="#BitstreamVeraSans-Roman-2212"/>
       <use x="83.7890625" xlink:href="#BitstreamVeraSans-Roman-30"/>
       <use x="147.412109375" xlink:href="#BitstreamVeraSans-Roman-2e"/>
       <use x="179.19921875" xlink:href="#BitstreamVeraSans-Roman-34"/>
      </g>
     </g>
    </g>
    <g id="xtick_2">
     <g id="line2d_7">
      <g>
       <use style="stroke:#000000;stroke-width:0.5;" x="274.5" xlink:href="#m190f6bc9a7" y="945.0"/>
      </g>
     </g>
     <g id="line2d_8">
      <g>
       <use style="stroke:#000000;stroke-width:0.5;" x="274.5" xlink:href="#m8343ff6ccd" y="108.0"/>
      </g>
     </g>
     <g id="text_2">
      <!-- −0.2 -->
      <defs>
       <path d="M 19.1875 8.296875 
L 53.609375 8.296875 
L 53.609375 0 
L 7.328125 0 
L 7.328125 8.296875 
Q 12.9375 14.109375 22.625 23.890625 
Q 32.328125 33.6875 34.8125 36.53125 
Q 39.546875 41.84375 41.421875 45.53125 
Q 43.3125 49.21875 43.3125 52.78125 
Q 43.3125 58.59375 39.234375 62.25 
Q 35.15625 65.921875 28.609375 65.921875 
Q 23.96875 65.921875 18.8125 64.3125 
Q 13.671875 62.703125 7.8125 59.421875 
L 7.8125 69.390625 
Q 13.765625 71.78125 18.9375 73 
Q 24.125 74.21875 28.421875 74.21875 
Q 39.75 74.21875 46.484375 68.546875 
Q 53.21875 62.890625 53.21875 53.421875 
Q 53.21875 48.921875 51.53125 44.890625 
Q 49.859375 40.875 45.40625 35.40625 
Q 44.1875 33.984375 37.640625 27.21875 
Q 31.109375 20.453125 19.1875 8.296875 
" id="BitstreamVeraSans-Roman-32"/>
      </defs>
      <g transform="translate(262.35859375 956.5984375)scale(0.1 -0.1)">
       <use xlink:href="#BitstreamVeraSans-Roman-2212"/>
       <use x="83.7890625" xlink:href="#BitstreamVeraSans-Roman-30"/>
       <use x="147.412109375" xlink:href="#BitstreamVeraSans-Roman-2e"/>
       <use x="179.19921875" xlink:href="#BitstreamVeraSans-Roman-32"/>
      </g>
     </g>
    </g>
    <g id="xtick_3">
     <g id="line2d_9">
      <g>
       <use style="stroke:#000000;stroke-width:0.5;" x="414.0" xlink:href="#m190f6bc9a7" y="945.0"/>
      </g>
     </g>
     <g id="line2d_10">
      <g>
       <use style="stroke:#000000;stroke-width:0.5;" x="414.0" xlink:href="#m8343ff6ccd" y="108.0"/>
      </g>
     </g>
     <g id="text_3">
      <!-- 0.0 -->
      <g transform="translate(406.0484375 956.5984375)scale(0.1 -0.1)">
       <use xlink:href="#BitstreamVeraSans-Roman-30"/>
       <use x="63.623046875" xlink:href="#BitstreamVeraSans-Roman-2e"/>
       <use x="95.41015625" xlink:href="#BitstreamVeraSans-Roman-30"/>
      </g>
     </g>
    </g>
    <g id="xtick_4">
     <g id="line2d_11">
      <g>
       <use style="stroke:#000000;stroke-width:0.5;" x="553.5" xlink:href="#m190f6bc9a7" y="945.0"/>
      </g>
     </g>
     <g id="line2d_12">
      <g>
       <use style="stroke:#000000;stroke-width:0.5;" x="553.5" xlink:href="#m8343ff6ccd" y="108.0"/>
      </g>
     </g>
     <g id="text_4">
      <!-- 0.2 -->
      <g transform="translate(545.5484375 956.5984375)scale(0.1 -0.1)">
       <use xlink:href="#BitstreamVeraSans-Roman-30"/>
       <use x="63.623046875" xlink:href="#BitstreamVeraSans-Roman-2e"/>
       <use x="95.41015625" xlink:href="#BitstreamVeraSans-Roman-32"/>
      </g>
     </g>
    </g>
    <g id="xtick_5">
     <g id="line2d_13">
      <g>
       <use style="stroke:#000000;stroke-width:0.5;" x="693.0" xlink:href="#m190f6bc9a7" y="945.0"/>
      </g>
     </g>
     <g id="line2d_14">
      <g>
       <use style="stroke:#000000;stroke-width:0.5;" x="693.0" xlink:href="#m8343ff6ccd" y="108.0"/>
      </g>
     </g>
     <g id="text_5">
      <!-- 0.4 -->
      <g transform="translate(685.0484375 956.5984375)scale(0.1 -0.1)">
       <use xlink:href="#BitstreamVeraSans-Roman-30"/>
       <use x="63.623046875" xlink:href="#BitstreamVeraSans-Roman-2e"/>
       <use x="95.41015625" xlink:href="#BitstreamVeraSans-Roman-34"/>
      </g>
     </g>
    </g>
    <g id="xtick_6">
     <g id="line2d_15">
      <g>
       <use style="stroke:#000000;stroke-width:0.5;" x="832.5" xlink:href="#m190f6bc9a7" y="945.0"/>
      </g>
     </g>
     <g id="line2d_16">
      <g>
       <use style="stroke:#000000;stroke-width:0.5;" x="832.5" xlink:href="#m8343ff6ccd" y="108.0"/>
      </g>
     </g>
     <g id="text_6">
      <!-- 0.6 -->
      <defs>
       <path d="M 33.015625 40.375 
Q 26.375 40.375 22.484375 35.828125 
Q 18.609375 31.296875 18.609375 23.390625 
Q 18.609375 15.53125 22.484375 10.953125 
Q 26.375 6.390625 33.015625 6.390625 
Q 39.65625 6.390625 43.53125 10.953125 
Q 47.40625 15.53125 47.40625 23.390625 
Q 47.40625 31.296875 43.53125 35.828125 
Q 39.65625 40.375 33.015625 40.375 
M 52.59375 71.296875 
L 52.59375 62.3125 
Q 48.875 64.0625 45.09375 64.984375 
Q 41.3125 65.921875 37.59375 65.921875 
Q 27.828125 65.921875 22.671875 59.328125 
Q 17.53125 52.734375 16.796875 39.40625 
Q 19.671875 43.65625 24.015625 45.921875 
Q 28.375 48.1875 33.59375 48.1875 
Q 44.578125 48.1875 50.953125 41.515625 
Q 57.328125 34.859375 57.328125 23.390625 
Q 57.328125 12.15625 50.6875 5.359375 
Q 44.046875 -1.421875 33.015625 -1.421875 
Q 20.359375 -1.421875 13.671875 8.265625 
Q 6.984375 17.96875 6.984375 36.375 
Q 6.984375 53.65625 15.1875 63.9375 
Q 23.390625 74.21875 37.203125 74.21875 
Q 40.921875 74.21875 44.703125 73.484375 
Q 48.484375 72.75 52.59375 71.296875 
" id="BitstreamVeraSans-Roman-36"/>
      </defs>
      <g transform="translate(824.5484375 956.5984375)scale(0.1 -0.1)">
       <use xlink:href="#BitstreamVeraSans-Roman-30"/>
       <use x="63.623046875" xlink:href="#BitstreamVeraSans-Roman-2e"/>
       <use x="95.41015625" xlink:href="#BitstreamVeraSans-Roman-36"/>
      </g>
     </g>
    </g>
    <g id="xtick_7">
     <g id="line2d_17">
      <g>
       <use style="stroke:#000000;stroke-width:0.5;" x="972.0" xlink:href="#m190f6bc9a7" y="945.0"/>
      </g>
     </g>
     <g id="line2d_18">
      <g>
       <use style="stroke:#000000;stroke-width:0.5;" x="972.0" xlink:href="#m8343ff6ccd" y="108.0"/>
      </g>
     </g>
     <g id="text_7">
      <!-- 0.8 -->
      <defs>
       <path d="M 31.78125 34.625 
Q 24.75 34.625 20.71875 30.859375 
Q 16.703125 27.09375 16.703125 20.515625 
Q 16.703125 13.921875 20.71875 10.15625 
Q 24.75 6.390625 31.78125 6.390625 
Q 38.8125 6.390625 42.859375 10.171875 
Q 46.921875 13.96875 46.921875 20.515625 
Q 46.921875 27.09375 42.890625 30.859375 
Q 38.875 34.625 31.78125 34.625 
M 21.921875 38.8125 
Q 15.578125 40.375 12.03125 44.71875 
Q 8.5 49.078125 8.5 55.328125 
Q 8.5 64.0625 14.71875 69.140625 
Q 20.953125 74.21875 31.78125 74.21875 
Q 42.671875 74.21875 48.875 69.140625 
Q 55.078125 64.0625 55.078125 55.328125 
Q 55.078125 49.078125 51.53125 44.71875 
Q 48 40.375 41.703125 38.8125 
Q 48.828125 37.15625 52.796875 32.3125 
Q 56.78125 27.484375 56.78125 20.515625 
Q 56.78125 9.90625 50.3125 4.234375 
Q 43.84375 -1.421875 31.78125 -1.421875 
Q 19.734375 -1.421875 13.25 4.234375 
Q 6.78125 9.90625 6.78125 20.515625 
Q 6.78125 27.484375 10.78125 32.3125 
Q 14.796875 37.15625 21.921875 38.8125 
M 18.3125 54.390625 
Q 18.3125 48.734375 21.84375 45.5625 
Q 25.390625 42.390625 31.78125 42.390625 
Q 38.140625 42.390625 41.71875 45.5625 
Q 45.3125 48.734375 45.3125 54.390625 
Q 45.3125 60.0625 41.71875 63.234375 
Q 38.140625 66.40625 31.78125 66.40625 
Q 25.390625 66.40625 21.84375 63.234375 
Q 18.3125 60.0625 18.3125 54.390625 
" id="BitstreamVeraSans-Roman-38"/>
      </defs>
      <g transform="translate(964.0484375 956.5984375)scale(0.1 -0.1)">
       <use xlink:href="#BitstreamVeraSans-Roman-30"/>
       <use x="63.623046875" xlink:href="#BitstreamVeraSans-Roman-2e"/>
       <use x="95.41015625" xlink:href="#BitstreamVeraSans-Roman-38"/>
      </g>
     </g>
    </g>
   </g>
   <g id="matplotlib.axis_2">
    <g id="ytick_1">
     <g id="line2d_19">
      <defs>
       <path d="M 0 0 
L 4 0 
" id="mce5f7afd48" style="stroke:#000000;stroke-width:0.5;"/>
      </defs>
      <g>
       <use style="stroke:#000000;stroke-width:0.5;" x="135.0" xlink:href="#mce5f7afd48" y="945.0"/>
      </g>
     </g>
     <g id="line2d_20">
      <defs>
       <path d="M 0 0 
L -4 0 
" id="md7901ac78f" style="stroke:#000000;stroke-width:0.5;"/>
      </defs>
      <g>
       <use style="stroke:#000000;stroke-width:0.5;" x="972.0" xlink:href="#md7901ac78f" y="945.0"/>
      </g>
     </g>
     <g id="text_8">
      <!-- 0 -->
      <g transform="translate(124.6375 947.759375)scale(0.1 -0.1)">
       <use xlink:href="#BitstreamVeraSans-Roman-30"/>
      </g>
     </g>
    </g>
    <g id="ytick_2">
     <g id="line2d_21">
      <g>
       <use style="stroke:#000000;stroke-width:0.5;" x="135.0" xlink:href="#mce5f7afd48" y="825.428571429"/>
      </g>
     </g>
     <g id="line2d_22">
      <g>
       <use style="stroke:#000000;stroke-width:0.5;" x="972.0" xlink:href="#md7901ac78f" y="825.428571429"/>
      </g>
     </g>
     <g id="text_9">
      <!-- 2 -->
      <g transform="translate(124.6375 828.187946429)scale(0.1 -0.1)">
       <use xlink:href="#BitstreamVeraSans-Roman-32"/>
      </g>
     </g>
    </g>
    <g id="ytick_3">
     <g id="line2d_23">
      <g>
       <use style="stroke:#000000;stroke-width:0.5;" x="135.0" xlink:href="#mce5f7afd48" y="705.857142857"/>
      </g>
     </g>
     <g id="line2d_24">
      <g>
       <use style="stroke:#000000;stroke-width:0.5;" x="972.0" xlink:href="#md7901ac78f" y="705.857142857"/>
      </g>
     </g>
     <g id="text_10">
      <!-- 4 -->
      <g transform="translate(124.6375 708.616517857)scale(0.1 -0.1)">
       <use xlink:href="#BitstreamVeraSans-Roman-34"/>
      </g>
     </g>
    </g>
    <g id="ytick_4">
     <g id="line2d_25">
      <g>
       <use style="stroke:#000000;stroke-width:0.5;" x="135.0" xlink:href="#mce5f7afd48" y="586.285714286"/>
      </g>
     </g>
     <g id="line2d_26">
      <g>
       <use style="stroke:#000000;stroke-width:0.5;" x="972.0" xlink:href="#md7901ac78f" y="586.285714286"/>
      </g>
     </g>
     <g id="text_11">
      <!-- 6 -->
      <g transform="translate(124.6375 589.045089286)scale(0.1 -0.1)">
       <use xlink:href="#BitstreamVeraSans-Roman-36"/>
      </g>
     </g>
    </g>
    <g id="ytick_5">
     <g id="line2d_27">
      <g>
       <use style="stroke:#000000;stroke-width:0.5;" x="135.0" xlink:href="#mce5f7afd48" y="466.714285714"/>
      </g>
     </g>
     <g id="line2d_28">
      <g>
       <use style="stroke:#000000;stroke-width:0.5;" x="972.0" xlink:href="#md7901ac78f" y="466.714285714"/>
      </g>
     </g>
     <g id="text_12">
      <!-- 8 -->
      <g transform="translate(124.6375 469.473660714)scale(0.1 -0.1)">
       <use xlink:href="#BitstreamVeraSans-Roman-38"/>
      </g>
     </g>
    </g>
    <g id="ytick_6">
     <g id="line2d_29">
      <g>
       <use style="stroke:#000000;stroke-width:0.5;" x="135.0" xlink:href="#mce5f7afd48" y="347.142857143"/>
      </g>
     </g>
     <g id="line2d_30">
      <g>
       <use style="stroke:#000000;stroke-width:0.5;" x="972.0" xlink:href="#md7901ac78f" y="347.142857143"/>
      </g>
     </g>
     <g id="text_13">
      <!-- 10 -->
      <defs>
       <path d="M 12.40625 8.296875 
L 28.515625 8.296875 
L 28.515625 63.921875 
L 10.984375 60.40625 
L 10.984375 69.390625 
L 28.421875 72.90625 
L 38.28125 72.90625 
L 38.28125 8.296875 
L 54.390625 8.296875 
L 54.390625 0 
L 12.40625 0 
z
" id="BitstreamVeraSans-Roman-31"/>
      </defs>
      <g transform="translate(118.275 349.902232143)scale(0.1 -0.1)">
       <use xlink:href="#BitstreamVeraSans-Roman-31"/>
       <use x="63.623046875" xlink:href="#BitstreamVeraSans-Roman-30"/>
      </g>
     </g>
    </g>
    <g id="ytick_7">
     <g id="line2d_31">
      <g>
       <use style="stroke:#000000;stroke-width:0.5;" x="135.0" xlink:href="#mce5f7afd48" y="227.571428571"/>
      </g>
     </g>
     <g id="line2d_32">
      <g>
       <use style="stroke:#000000;stroke-width:0.5;" x="972.0" xlink:href="#md7901ac78f" y="227.571428571"/>
      </g>
     </g>
     <g id="text_14">
      <!-- 12 -->
      <g transform="translate(118.275 230.330803571)scale(0.1 -0.1)">
       <use xlink:href="#BitstreamVeraSans-Roman-31"/>
       <use x="63.623046875" xlink:href="#BitstreamVeraSans-Roman-32"/>
      </g>
     </g>
    </g>
    <g id="ytick_8">
     <g id="line2d_33">
      <g>
       <use style="stroke:#000000;stroke-width:0.5;" x="135.0" xlink:href="#mce5f7afd48" y="108.0"/>
      </g>
     </g>
     <g id="line2d_34">
      <g>
       <use style="stroke:#000000;stroke-width:0.5;" x="972.0" xlink:href="#md7901ac78f" y="108.0"/>
      </g>
     </g>
     <g id="text_15">
      <!-- 14 -->
      <g transform="translate(118.275 110.759375)scale(0.1 -0.1)">
       <use xlink:href="#BitstreamVeraSans-Roman-31"/>
       <use x="63.623046875" xlink:href="#BitstreamVeraSans-Roman-34"/>
      </g>
     </g>
    </g>
   </g>
  </g>
 </g>
 <defs>
  <clipPath id="p65c51a1cfb">
   <rect height="837.0" width="837.0" x="135.0" y="108.0"/>
  </clipPath>
 </defs>
</svg>
