<?xml version="1.0" encoding="utf-8" standalone="no"?>
<!DOCTYPE svg PUBLIC "-//W3C//DTD SVG 1.1//EN"
  "http://www.w3.org/Graphics/SVG/1.1/DTD/svg11.dtd">
<!-- Created with matplotlib (http://matplotlib.org/) -->
<svg height="600pt" version="1.1" viewBox="0 0 787 600" width="787pt" xmlns="http://www.w3.org/2000/svg" xmlns:xlink="http://www.w3.org/1999/xlink">
 <defs>
  <style type="text/css">
*{stroke-linecap:butt;stroke-linejoin:round;stroke-miterlimit:100000;}
  </style>
 </defs>
 <g id="figure_1">
  <g id="patch_1">
   <path d="M -0 600.75625 
L 787.10625 600.75625 
L 787.10625 0 
L -0 0 
z
" style="fill:#ffffff;"/>
  </g>
  <g id="axes_1">
   <g id="patch_2">
    <path d="M 54.50625 565.2 
L 779.90625 565.2 
L 779.90625 7.2 
L 54.50625 7.2 
z
" style="fill:#ffffff;"/>
   </g>
   <g id="patch_3">
    <path clip-path="url(#p5e9383af02)" d="M 74.09205 420.334615 
L 95.37045 420.334615 
L 95.37045 393.507692 
L 74.09205 393.507692 
L 74.09205 420.334615 
z
" style="fill:#d3d3d3;opacity:0.6;stroke:#000000;stroke-linejoin:miter;"/>
   </g>
   <g id="patch_4">
    <path clip-path="url(#p5e9383af02)" d="M 134.54205 372.046154 
L 155.82045 372.046154 
L 155.82045 345.219231 
L 134.54205 345.219231 
L 134.54205 372.046154 
z
" style="fill:#d3d3d3;opacity:0.6;stroke:#000000;stroke-linejoin:miter;"/>
   </g>
   <g id="patch_5">
    <path clip-path="url(#p5e9383af02)" d="M 198.6795 372.046154 
L 212.583 372.046154 
L 212.583 345.219231 
L 198.6795 345.219231 
L 198.6795 372.046154 
z
" style="fill:#d3d3d3;opacity:0.6;stroke:#000000;stroke-linejoin:miter;"/>
   </g>
   <g id="patch_6">
    <path clip-path="url(#p5e9383af02)" d="M 256.28835 388.142308 
L 275.87415 388.142308 
L 275.87415 334.488462 
L 256.28835 334.488462 
L 256.28835 388.142308 
z
" style="fill:#d3d3d3;opacity:0.6;stroke:#000000;stroke-linejoin:miter;"/>
   </g>
   <g id="patch_7">
    <path clip-path="url(#p5e9383af02)" d="M 318.098475 393.507692 
L 334.964025 393.507692 
L 334.964025 329.123077 
L 318.098475 329.123077 
L 318.098475 393.507692 
z
" style="fill:#d3d3d3;opacity:0.6;stroke:#000000;stroke-linejoin:miter;"/>
   </g>
   <g id="patch_8">
    <path clip-path="url(#p5e9383af02)" d="M 379.515675 329.123077 
L 394.446825 329.123077 
L 394.446825 307.661538 
L 379.515675 307.661538 
L 379.515675 329.123077 
z
" style="fill:#d3d3d3;opacity:0.6;stroke:#000000;stroke-linejoin:miter;"/>
   </g>
   <g id="patch_9">
    <path clip-path="url(#p5e9383af02)" d="M 439.45185 366.680769 
L 455.41065 366.680769 
L 455.41065 329.123077 
L 439.45185 329.123077 
L 439.45185 366.680769 
z
" style="fill:#d3d3d3;opacity:0.6;stroke:#000000;stroke-linejoin:miter;"/>
   </g>
   <g id="patch_10">
    <path clip-path="url(#p5e9383af02)" d="M 498.5115 350.584615 
L 517.251 350.584615 
L 517.251 264.738462 
L 498.5115 264.738462 
L 498.5115 350.584615 
z
" style="fill:#d3d3d3;opacity:0.6;stroke:#000000;stroke-linejoin:miter;"/>
   </g>
   <g id="patch_11">
    <path clip-path="url(#p5e9383af02)" d="M 556.9062 393.507692 
L 579.7563 393.507692 
L 579.7563 313.026923 
L 556.9062 313.026923 
L 556.9062 393.507692 
z
" style="fill:#d3d3d3;opacity:0.6;stroke:#000000;stroke-linejoin:miter;"/>
   </g>
   <g id="patch_12">
    <path clip-path="url(#p5e9383af02)" d="M 628.146525 350.584615 
L 629.415975 350.584615 
L 629.415975 243.276923 
L 628.146525 243.276923 
L 628.146525 350.584615 
z
" style="fill:#d3d3d3;opacity:0.6;stroke:#000000;stroke-linejoin:miter;"/>
   </g>
   <g id="patch_13">
    <path clip-path="url(#p5e9383af02)" d="M 662.27055 372.046154 
L 716.19195 372.046154 
L 716.19195 307.661538 
L 662.27055 307.661538 
L 662.27055 372.046154 
z
" style="fill:#d3d3d3;opacity:0.6;stroke:#000000;stroke-linejoin:miter;"/>
   </g>
   <g id="patch_14">
    <path clip-path="url(#p5e9383af02)" d="M 729.823425 393.507692 
L 769.539075 393.507692 
L 769.539075 307.661538 
L 729.823425 307.661538 
L 729.823425 393.507692 
z
" style="fill:#d3d3d3;opacity:0.6;stroke:#000000;stroke-linejoin:miter;"/>
   </g>
   <g id="line2d_1">
    <path clip-path="url(#p5e9383af02)" d="M 84.73125 420.334615 
L 84.73125 457.892308 
" style="fill:none;opacity:0.4;stroke:#000000;stroke-dasharray:6.000000,6.000000;stroke-dashoffset:0.0;stroke-width:2.0;"/>
   </g>
   <g id="line2d_2">
    <path clip-path="url(#p5e9383af02)" d="M 84.73125 393.507692 
L 84.73125 372.046154 
" style="fill:none;opacity:0.4;stroke:#000000;stroke-dasharray:6.000000,6.000000;stroke-dashoffset:0.0;stroke-width:2.0;"/>
   </g>
   <g id="line2d_3">
    <path clip-path="url(#p5e9383af02)" d="M 79.41165 457.892308 
L 90.05085 457.892308 
" style="fill:none;opacity:0.4;stroke:#000000;stroke-linecap:square;stroke-width:2.0;"/>
   </g>
   <g id="line2d_4">
    <path clip-path="url(#p5e9383af02)" d="M 79.41165 372.046154 
L 90.05085 372.046154 
" style="fill:none;opacity:0.4;stroke:#000000;stroke-linecap:square;stroke-width:2.0;"/>
   </g>
   <g id="line2d_5">
    <path clip-path="url(#p5e9383af02)" d="M 74.09205 414.969231 
L 95.37045 414.969231 
" style="fill:none;opacity:0.9;stroke:#ff0000;stroke-linecap:square;stroke-width:2.0;"/>
   </g>
   <g id="line2d_6">
    <defs>
     <path d="M 0 1.5 
C 0.397805 1.5 0.77937 1.341951 1.06066 1.06066 
C 1.341951 0.77937 1.5 0.397805 1.5 0 
C 1.5 -0.397805 1.341951 -0.77937 1.06066 -1.06066 
C 0.77937 -1.341951 0.397805 -1.5 0 -1.5 
C -0.397805 -1.5 -0.77937 -1.341951 -1.06066 -1.06066 
C -1.341951 -0.77937 -1.5 -0.397805 -1.5 0 
C -1.5 0.397805 -1.341951 0.77937 -1.06066 1.06066 
C -0.77937 1.341951 -0.397805 1.5 0 1.5 
z
" id="m87829137ee" style="stroke:#000000;stroke-width:0.5;"/>
    </defs>
    <g clip-path="url(#p5e9383af02)">
     <use style="fill:#0000ff;opacity:0.8;stroke:#000000;stroke-width:0.5;" x="84.73125" xlink:href="#m87829137ee" y="479.353846154"/>
    </g>
   </g>
   <g id="line2d_7">
    <path clip-path="url(#p5e9383af02)" d="M 145.18125 372.046154 
L 145.18125 393.507692 
" style="fill:none;opacity:0.4;stroke:#000000;stroke-dasharray:6.000000,6.000000;stroke-dashoffset:0.0;stroke-width:2.0;"/>
   </g>
   <g id="line2d_8">
    <path clip-path="url(#p5e9383af02)" d="M 145.18125 345.219231 
L 145.18125 329.123077 
" style="fill:none;opacity:0.4;stroke:#000000;stroke-dasharray:6.000000,6.000000;stroke-dashoffset:0.0;stroke-width:2.0;"/>
   </g>
   <g id="line2d_9">
    <path clip-path="url(#p5e9383af02)" d="M 139.86165 393.507692 
L 150.50085 393.507692 
" style="fill:none;opacity:0.4;stroke:#000000;stroke-linecap:square;stroke-width:2.0;"/>
   </g>
   <g id="line2d_10">
    <path clip-path="url(#p5e9383af02)" d="M 139.86165 329.123077 
L 150.50085 329.123077 
" style="fill:none;opacity:0.4;stroke:#000000;stroke-linecap:square;stroke-width:2.0;"/>
   </g>
   <g id="line2d_11">
    <path clip-path="url(#p5e9383af02)" d="M 134.54205 350.584615 
L 155.82045 350.584615 
" style="fill:none;opacity:0.9;stroke:#ff0000;stroke-linecap:square;stroke-width:2.0;"/>
   </g>
   <g id="line2d_12">
    <g clip-path="url(#p5e9383af02)">
     <use style="fill:#0000ff;opacity:0.8;stroke:#000000;stroke-width:0.5;" x="145.18125" xlink:href="#m87829137ee" y="436.430769231"/>
     <use style="fill:#0000ff;opacity:0.8;stroke:#000000;stroke-width:0.5;" x="145.18125" xlink:href="#m87829137ee" y="414.969230769"/>
     <use style="fill:#0000ff;opacity:0.8;stroke:#000000;stroke-width:0.5;" x="145.18125" xlink:href="#m87829137ee" y="264.738461538"/>
    </g>
   </g>
   <g id="line2d_13">
    <path clip-path="url(#p5e9383af02)" d="M 205.63125 372.046154 
L 205.63125 372.046154 
" style="fill:none;opacity:0.4;stroke:#000000;stroke-dasharray:6.000000,6.000000;stroke-dashoffset:0.0;stroke-width:2.0;"/>
   </g>
   <g id="line2d_14">
    <path clip-path="url(#p5e9383af02)" d="M 205.63125 345.219231 
L 205.63125 307.661538 
" style="fill:none;opacity:0.4;stroke:#000000;stroke-dasharray:6.000000,6.000000;stroke-dashoffset:0.0;stroke-width:2.0;"/>
   </g>
   <g id="line2d_15">
    <path clip-path="url(#p5e9383af02)" d="M 202.155375 372.046154 
L 209.107125 372.046154 
" style="fill:none;opacity:0.4;stroke:#000000;stroke-linecap:square;stroke-width:2.0;"/>
   </g>
   <g id="line2d_16">
    <path clip-path="url(#p5e9383af02)" d="M 202.155375 307.661538 
L 209.107125 307.661538 
" style="fill:none;opacity:0.4;stroke:#000000;stroke-linecap:square;stroke-width:2.0;"/>
   </g>
   <g id="line2d_17">
    <path clip-path="url(#p5e9383af02)" d="M 198.6795 350.584615 
L 212.583 350.584615 
" style="fill:none;opacity:0.9;stroke:#ff0000;stroke-linecap:square;stroke-width:2.0;"/>
   </g>
   <g id="line2d_18">
    <g clip-path="url(#p5e9383af02)">
     <use style="fill:#0000ff;opacity:0.8;stroke:#000000;stroke-width:0.5;" x="205.63125" xlink:href="#m87829137ee" y="436.430769231"/>
     <use style="fill:#0000ff;opacity:0.8;stroke:#000000;stroke-width:0.5;" x="205.63125" xlink:href="#m87829137ee" y="414.969230769"/>
    </g>
   </g>
   <g id="line2d_19">
    <path clip-path="url(#p5e9383af02)" d="M 266.08125 388.142308 
L 266.08125 393.507692 
" style="fill:none;opacity:0.4;stroke:#000000;stroke-dasharray:6.000000,6.000000;stroke-dashoffset:0.0;stroke-width:2.0;"/>
   </g>
   <g id="line2d_20">
    <path clip-path="url(#p5e9383af02)" d="M 266.08125 334.488462 
L 266.08125 329.123077 
" style="fill:none;opacity:0.4;stroke:#000000;stroke-dasharray:6.000000,6.000000;stroke-dashoffset:0.0;stroke-width:2.0;"/>
   </g>
   <g id="line2d_21">
    <path clip-path="url(#p5e9383af02)" d="M 261.1848 393.507692 
L 270.9777 393.507692 
" style="fill:none;opacity:0.4;stroke:#000000;stroke-linecap:square;stroke-width:2.0;"/>
   </g>
   <g id="line2d_22">
    <path clip-path="url(#p5e9383af02)" d="M 261.1848 329.123077 
L 270.9777 329.123077 
" style="fill:none;opacity:0.4;stroke:#000000;stroke-linecap:square;stroke-width:2.0;"/>
   </g>
   <g id="line2d_23">
    <path clip-path="url(#p5e9383af02)" d="M 256.28835 372.046154 
L 275.87415 372.046154 
" style="fill:none;opacity:0.9;stroke:#ff0000;stroke-linecap:square;stroke-width:2.0;"/>
   </g>
   <g id="line2d_24">
    <g clip-path="url(#p5e9383af02)">
     <use style="fill:#0000ff;opacity:0.8;stroke:#000000;stroke-width:0.5;" x="266.08125" xlink:href="#m87829137ee" y="243.276923077"/>
     <use style="fill:#0000ff;opacity:0.8;stroke:#000000;stroke-width:0.5;" x="266.08125" xlink:href="#m87829137ee" y="243.276923077"/>
     <use style="fill:#0000ff;opacity:0.8;stroke:#000000;stroke-width:0.5;" x="266.08125" xlink:href="#m87829137ee" y="221.815384615"/>
    </g>
   </g>
   <g id="line2d_25">
    <path clip-path="url(#p5e9383af02)" d="M 326.53125 393.507692 
L 326.53125 457.892308 
" style="fill:none;opacity:0.4;stroke:#000000;stroke-dasharray:6.000000,6.000000;stroke-dashoffset:0.0;stroke-width:2.0;"/>
   </g>
   <g id="line2d_26">
    <path clip-path="url(#p5e9383af02)" d="M 326.53125 329.123077 
L 326.53125 329.123077 
" style="fill:none;opacity:0.4;stroke:#000000;stroke-dasharray:6.000000,6.000000;stroke-dashoffset:0.0;stroke-width:2.0;"/>
   </g>
   <g id="line2d_27">
    <path clip-path="url(#p5e9383af02)" d="M 322.314863 457.892308 
L 330.747637 457.892308 
" style="fill:none;opacity:0.4;stroke:#000000;stroke-linecap:square;stroke-width:2.0;"/>
   </g>
   <g id="line2d_28">
    <path clip-path="url(#p5e9383af02)" d="M 322.314863 329.123077 
L 330.747637 329.123077 
" style="fill:none;opacity:0.4;stroke:#000000;stroke-linecap:square;stroke-width:2.0;"/>
   </g>
   <g id="line2d_29">
    <path clip-path="url(#p5e9383af02)" d="M 318.098475 372.046154 
L 334.964025 372.046154 
" style="fill:none;opacity:0.9;stroke:#ff0000;stroke-linecap:square;stroke-width:2.0;"/>
   </g>
   <g id="line2d_30">
    <g clip-path="url(#p5e9383af02)">
     <use style="fill:#0000ff;opacity:0.8;stroke:#000000;stroke-width:0.5;" x="326.53125" xlink:href="#m87829137ee" y="221.815384615"/>
     <use style="fill:#0000ff;opacity:0.8;stroke:#000000;stroke-width:0.5;" x="326.53125" xlink:href="#m87829137ee" y="178.892307692"/>
    </g>
   </g>
   <g id="line2d_31">
    <path clip-path="url(#p5e9383af02)" d="M 386.98125 329.123077 
L 386.98125 350.584615 
" style="fill:none;opacity:0.4;stroke:#000000;stroke-dasharray:6.000000,6.000000;stroke-dashoffset:0.0;stroke-width:2.0;"/>
   </g>
   <g id="line2d_32">
    <path clip-path="url(#p5e9383af02)" d="M 386.98125 307.661538 
L 386.98125 286.2 
" style="fill:none;opacity:0.4;stroke:#000000;stroke-dasharray:6.000000,6.000000;stroke-dashoffset:0.0;stroke-width:2.0;"/>
   </g>
   <g id="line2d_33">
    <path clip-path="url(#p5e9383af02)" d="M 383.248462 350.584615 
L 390.714037 350.584615 
" style="fill:none;opacity:0.4;stroke:#000000;stroke-linecap:square;stroke-width:2.0;"/>
   </g>
   <g id="line2d_34">
    <path clip-path="url(#p5e9383af02)" d="M 383.248462 286.2 
L 390.714037 286.2 
" style="fill:none;opacity:0.4;stroke:#000000;stroke-linecap:square;stroke-width:2.0;"/>
   </g>
   <g id="line2d_35">
    <path clip-path="url(#p5e9383af02)" d="M 379.515675 329.123077 
L 394.446825 329.123077 
" style="fill:none;opacity:0.9;stroke:#ff0000;stroke-linecap:square;stroke-width:2.0;"/>
   </g>
   <g id="line2d_36">
    <g clip-path="url(#p5e9383af02)">
     <use style="fill:#0000ff;opacity:0.8;stroke:#000000;stroke-width:0.5;" x="386.98125" xlink:href="#m87829137ee" y="372.046153846"/>
     <use style="fill:#0000ff;opacity:0.8;stroke:#000000;stroke-width:0.5;" x="386.98125" xlink:href="#m87829137ee" y="200.353846154"/>
    </g>
   </g>
   <g id="line2d_37">
    <path clip-path="url(#p5e9383af02)" d="M 447.43125 366.680769 
L 447.43125 372.046154 
" style="fill:none;opacity:0.4;stroke:#000000;stroke-dasharray:6.000000,6.000000;stroke-dashoffset:0.0;stroke-width:2.0;"/>
   </g>
   <g id="line2d_38">
    <path clip-path="url(#p5e9383af02)" d="M 447.43125 329.123077 
L 447.43125 307.661538 
" style="fill:none;opacity:0.4;stroke:#000000;stroke-dasharray:6.000000,6.000000;stroke-dashoffset:0.0;stroke-width:2.0;"/>
   </g>
   <g id="line2d_39">
    <path clip-path="url(#p5e9383af02)" d="M 443.44155 372.046154 
L 451.42095 372.046154 
" style="fill:none;opacity:0.4;stroke:#000000;stroke-linecap:square;stroke-width:2.0;"/>
   </g>
   <g id="line2d_40">
    <path clip-path="url(#p5e9383af02)" d="M 443.44155 307.661538 
L 451.42095 307.661538 
" style="fill:none;opacity:0.4;stroke:#000000;stroke-linecap:square;stroke-width:2.0;"/>
   </g>
   <g id="line2d_41">
    <path clip-path="url(#p5e9383af02)" d="M 439.45185 339.853846 
L 455.41065 339.853846 
" style="fill:none;opacity:0.9;stroke:#ff0000;stroke-linecap:square;stroke-width:2.0;"/>
   </g>
   <g id="line2d_42"/>
   <g id="line2d_43">
    <path clip-path="url(#p5e9383af02)" d="M 507.88125 350.584615 
L 507.88125 393.507692 
" style="fill:none;opacity:0.4;stroke:#000000;stroke-dasharray:6.000000,6.000000;stroke-dashoffset:0.0;stroke-width:2.0;"/>
   </g>
   <g id="line2d_44">
    <path clip-path="url(#p5e9383af02)" d="M 507.88125 264.738462 
L 507.88125 178.892308 
" style="fill:none;opacity:0.4;stroke:#000000;stroke-dasharray:6.000000,6.000000;stroke-dashoffset:0.0;stroke-width:2.0;"/>
   </g>
   <g id="line2d_45">
    <path clip-path="url(#p5e9383af02)" d="M 503.196375 393.507692 
L 512.566125 393.507692 
" style="fill:none;opacity:0.4;stroke:#000000;stroke-linecap:square;stroke-width:2.0;"/>
   </g>
   <g id="line2d_46">
    <path clip-path="url(#p5e9383af02)" d="M 503.196375 178.892308 
L 512.566125 178.892308 
" style="fill:none;opacity:0.4;stroke:#000000;stroke-linecap:square;stroke-width:2.0;"/>
   </g>
   <g id="line2d_47">
    <path clip-path="url(#p5e9383af02)" d="M 498.5115 329.123077 
L 517.251 329.123077 
" style="fill:none;opacity:0.9;stroke:#ff0000;stroke-linecap:square;stroke-width:2.0;"/>
   </g>
   <g id="line2d_48">
    <g clip-path="url(#p5e9383af02)">
     <use style="fill:#0000ff;opacity:0.8;stroke:#000000;stroke-width:0.5;" x="507.88125" xlink:href="#m87829137ee" y="71.5846153846"/>
    </g>
   </g>
   <g id="line2d_49">
    <path clip-path="url(#p5e9383af02)" d="M 568.33125 393.507692 
L 568.33125 436.430769 
" style="fill:none;opacity:0.4;stroke:#000000;stroke-dasharray:6.000000,6.000000;stroke-dashoffset:0.0;stroke-width:2.0;"/>
   </g>
   <g id="line2d_50">
    <path clip-path="url(#p5e9383af02)" d="M 568.33125 313.026923 
L 568.33125 200.353846 
" style="fill:none;opacity:0.4;stroke:#000000;stroke-dasharray:6.000000,6.000000;stroke-dashoffset:0.0;stroke-width:2.0;"/>
   </g>
   <g id="line2d_51">
    <path clip-path="url(#p5e9383af02)" d="M 562.618725 436.430769 
L 574.043775 436.430769 
" style="fill:none;opacity:0.4;stroke:#000000;stroke-linecap:square;stroke-width:2.0;"/>
   </g>
   <g id="line2d_52">
    <path clip-path="url(#p5e9383af02)" d="M 562.618725 200.353846 
L 574.043775 200.353846 
" style="fill:none;opacity:0.4;stroke:#000000;stroke-linecap:square;stroke-width:2.0;"/>
   </g>
   <g id="line2d_53">
    <path clip-path="url(#p5e9383af02)" d="M 556.9062 350.584615 
L 579.7563 350.584615 
" style="fill:none;opacity:0.9;stroke:#ff0000;stroke-linecap:square;stroke-width:2.0;"/>
   </g>
   <g id="line2d_54">
    <g clip-path="url(#p5e9383af02)">
     <use style="fill:#0000ff;opacity:0.8;stroke:#000000;stroke-width:0.5;" x="568.33125" xlink:href="#m87829137ee" y="178.892307692"/>
    </g>
   </g>
   <g id="line2d_55">
    <path clip-path="url(#p5e9383af02)" d="M 628.78125 350.584615 
L 628.78125 414.969231 
" style="fill:none;opacity:0.4;stroke:#000000;stroke-dasharray:6.000000,6.000000;stroke-dashoffset:0.0;stroke-width:2.0;"/>
   </g>
   <g id="line2d_56">
    <path clip-path="url(#p5e9383af02)" d="M 628.78125 243.276923 
L 628.78125 200.353846 
" style="fill:none;opacity:0.4;stroke:#000000;stroke-dasharray:6.000000,6.000000;stroke-dashoffset:0.0;stroke-width:2.0;"/>
   </g>
   <g id="line2d_57">
    <path clip-path="url(#p5e9383af02)" d="M 628.463887 414.969231 
L 629.098612 414.969231 
" style="fill:none;opacity:0.4;stroke:#000000;stroke-linecap:square;stroke-width:2.0;"/>
   </g>
   <g id="line2d_58">
    <path clip-path="url(#p5e9383af02)" d="M 628.463887 200.353846 
L 629.098612 200.353846 
" style="fill:none;opacity:0.4;stroke:#000000;stroke-linecap:square;stroke-width:2.0;"/>
   </g>
   <g id="line2d_59">
    <path clip-path="url(#p5e9383af02)" d="M 628.146525 286.2 
L 629.415975 286.2 
" style="fill:none;opacity:0.9;stroke:#ff0000;stroke-linecap:square;stroke-width:2.0;"/>
   </g>
   <g id="line2d_60"/>
   <g id="line2d_61">
    <path clip-path="url(#p5e9383af02)" d="M 689.23125 372.046154 
L 689.23125 436.430769 
" style="fill:none;opacity:0.4;stroke:#000000;stroke-dasharray:6.000000,6.000000;stroke-dashoffset:0.0;stroke-width:2.0;"/>
   </g>
   <g id="line2d_62">
    <path clip-path="url(#p5e9383af02)" d="M 689.23125 307.661538 
L 689.23125 221.815385 
" style="fill:none;opacity:0.4;stroke:#000000;stroke-dasharray:6.000000,6.000000;stroke-dashoffset:0.0;stroke-width:2.0;"/>
   </g>
   <g id="line2d_63">
    <path clip-path="url(#p5e9383af02)" d="M 675.7509 436.430769 
L 702.7116 436.430769 
" style="fill:none;opacity:0.4;stroke:#000000;stroke-linecap:square;stroke-width:2.0;"/>
   </g>
   <g id="line2d_64">
    <path clip-path="url(#p5e9383af02)" d="M 675.7509 221.815385 
L 702.7116 221.815385 
" style="fill:none;opacity:0.4;stroke:#000000;stroke-linecap:square;stroke-width:2.0;"/>
   </g>
   <g id="line2d_65">
    <path clip-path="url(#p5e9383af02)" d="M 662.27055 350.584615 
L 716.19195 350.584615 
" style="fill:none;opacity:0.9;stroke:#ff0000;stroke-linecap:square;stroke-width:2.0;"/>
   </g>
   <g id="line2d_66">
    <g clip-path="url(#p5e9383af02)">
     <use style="fill:#0000ff;opacity:0.8;stroke:#000000;stroke-width:0.5;" x="689.23125" xlink:href="#m87829137ee" y="200.353846154"/>
     <use style="fill:#0000ff;opacity:0.8;stroke:#000000;stroke-width:0.5;" x="689.23125" xlink:href="#m87829137ee" y="200.353846154"/>
     <use style="fill:#0000ff;opacity:0.8;stroke:#000000;stroke-width:0.5;" x="689.23125" xlink:href="#m87829137ee" y="178.892307692"/>
     <use style="fill:#0000ff;opacity:0.8;stroke:#000000;stroke-width:0.5;" x="689.23125" xlink:href="#m87829137ee" y="157.430769231"/>
     <use style="fill:#0000ff;opacity:0.8;stroke:#000000;stroke-width:0.5;" x="689.23125" xlink:href="#m87829137ee" y="114.507692308"/>
     <use style="fill:#0000ff;opacity:0.8;stroke:#000000;stroke-width:0.5;" x="689.23125" xlink:href="#m87829137ee" y="71.5846153846"/>
     <use style="fill:#0000ff;opacity:0.8;stroke:#000000;stroke-width:0.5;" x="689.23125" xlink:href="#m87829137ee" y="71.5846153846"/>
    </g>
   </g>
   <g id="line2d_67">
    <path clip-path="url(#p5e9383af02)" d="M 749.68125 393.507692 
L 749.68125 522.276923 
" style="fill:none;opacity:0.4;stroke:#000000;stroke-dasharray:6.000000,6.000000;stroke-dashoffset:0.0;stroke-width:2.0;"/>
   </g>
   <g id="line2d_68">
    <path clip-path="url(#p5e9383af02)" d="M 749.68125 307.661538 
L 749.68125 200.353846 
" style="fill:none;opacity:0.4;stroke:#000000;stroke-dasharray:6.000000,6.000000;stroke-dashoffset:0.0;stroke-width:2.0;"/>
   </g>
   <g id="line2d_69">
    <path clip-path="url(#p5e9383af02)" d="M 739.752337 522.276923 
L 759.610162 522.276923 
" style="fill:none;opacity:0.4;stroke:#000000;stroke-linecap:square;stroke-width:2.0;"/>
   </g>
   <g id="line2d_70">
    <path clip-path="url(#p5e9383af02)" d="M 739.752337 200.353846 
L 759.610162 200.353846 
" style="fill:none;opacity:0.4;stroke:#000000;stroke-linecap:square;stroke-width:2.0;"/>
   </g>
   <g id="line2d_71">
    <path clip-path="url(#p5e9383af02)" d="M 729.823425 350.584615 
L 769.539075 350.584615 
" style="fill:none;opacity:0.9;stroke:#ff0000;stroke-linecap:square;stroke-width:2.0;"/>
   </g>
   <g id="line2d_72">
    <g clip-path="url(#p5e9383af02)">
     <use style="fill:#0000ff;opacity:0.8;stroke:#000000;stroke-width:0.5;" x="749.68125" xlink:href="#m87829137ee" y="157.430769231"/>
     <use style="fill:#0000ff;opacity:0.8;stroke:#000000;stroke-width:0.5;" x="749.68125" xlink:href="#m87829137ee" y="114.507692308"/>
    </g>
   </g>
   <g id="patch_15">
    <path d="M 54.50625 7.2 
L 779.90625 7.2 
" style="fill:none;stroke:#000000;stroke-linecap:square;stroke-linejoin:miter;"/>
   </g>
   <g id="patch_16">
    <path d="M 779.90625 565.2 
L 779.90625 7.2 
" style="fill:none;stroke:#000000;stroke-linecap:square;stroke-linejoin:miter;"/>
   </g>
   <g id="patch_17">
    <path d="M 54.50625 565.2 
L 779.90625 565.2 
" style="fill:none;stroke:#000000;stroke-linecap:square;stroke-linejoin:miter;"/>
   </g>
   <g id="patch_18">
    <path d="M 54.50625 565.2 
L 54.50625 7.2 
" style="fill:none;stroke:#000000;stroke-linecap:square;stroke-linejoin:miter;"/>
   </g>
   <g id="matplotlib.axis_1">
    <g id="xtick_1">
     <g id="line2d_73">
      <defs>
       <path d="M 0 0 
L 0 -4 
" id="m8bc048ef9c" style="stroke:#000000;stroke-width:0.5;"/>
      </defs>
      <g>
       <use style="stroke:#000000;stroke-width:0.5;" x="84.73125" xlink:href="#m8bc048ef9c" y="565.2"/>
      </g>
     </g>
     <g id="text_1">
      <!-- 0 -->
      <defs>
       <path d="M 31.78125 66.40625 
Q 24.171875 66.40625 20.328125 58.90625 
Q 16.5 51.421875 16.5 36.375 
Q 16.5 21.390625 20.328125 13.890625 
Q 24.171875 6.390625 31.78125 6.390625 
Q 39.453125 6.390625 43.28125 13.890625 
Q 47.125 21.390625 47.125 36.375 
Q 47.125 51.421875 43.28125 58.90625 
Q 39.453125 66.40625 31.78125 66.40625 
M 31.78125 74.21875 
Q 44.046875 74.21875 50.515625 64.515625 
Q 56.984375 54.828125 56.984375 36.375 
Q 56.984375 17.96875 50.515625 8.265625 
Q 44.046875 -1.421875 31.78125 -1.421875 
Q 19.53125 -1.421875 13.0625 8.265625 
Q 6.59375 17.96875 6.59375 36.375 
Q 6.59375 54.828125 13.0625 64.515625 
Q 19.53125 74.21875 31.78125 74.21875 
" id="BitstreamVeraSans-Roman-30"/>
      </defs>
      <g transform="translate(81.55 576.7984375)scale(0.1 -0.1)">
       <use xlink:href="#BitstreamVeraSans-Roman-30"/>
      </g>
     </g>
    </g>
    <g id="xtick_2">
     <g id="line2d_74">
      <g>
       <use style="stroke:#000000;stroke-width:0.5;" x="145.18125" xlink:href="#m8bc048ef9c" y="565.2"/>
      </g>
     </g>
     <g id="text_2">
      <!-- 11 -->
      <defs>
       <path d="M 12.40625 8.296875 
L 28.515625 8.296875 
L 28.515625 63.921875 
L 10.984375 60.40625 
L 10.984375 69.390625 
L 28.421875 72.90625 
L 38.28125 72.90625 
L 38.28125 8.296875 
L 54.390625 8.296875 
L 54.390625 0 
L 12.40625 0 
z
" id="BitstreamVeraSans-Roman-31"/>
      </defs>
      <g transform="translate(138.81875 576.7984375)scale(0.1 -0.1)">
       <use xlink:href="#BitstreamVeraSans-Roman-31"/>
       <use x="63.623046875" xlink:href="#BitstreamVeraSans-Roman-31"/>
      </g>
     </g>
    </g>
    <g id="xtick_3">
     <g id="line2d_75">
      <g>
       <use style="stroke:#000000;stroke-width:0.5;" x="205.63125" xlink:href="#m8bc048ef9c" y="565.2"/>
      </g>
     </g>
     <g id="text_3">
      <!-- 12 -->
      <defs>
       <path d="M 19.1875 8.296875 
L 53.609375 8.296875 
L 53.609375 0 
L 7.328125 0 
L 7.328125 8.296875 
Q 12.9375 14.109375 22.625 23.890625 
Q 32.328125 33.6875 34.8125 36.53125 
Q 39.546875 41.84375 41.421875 45.53125 
Q 43.3125 49.21875 43.3125 52.78125 
Q 43.3125 58.59375 39.234375 62.25 
Q 35.15625 65.921875 28.609375 65.921875 
Q 23.96875 65.921875 18.8125 64.3125 
Q 13.671875 62.703125 7.8125 59.421875 
L 7.8125 69.390625 
Q 13.765625 71.78125 18.9375 73 
Q 24.125 74.21875 28.421875 74.21875 
Q 39.75 74.21875 46.484375 68.546875 
Q 53.21875 62.890625 53.21875 53.421875 
Q 53.21875 48.921875 51.53125 44.890625 
Q 49.859375 40.875 45.40625 35.40625 
Q 44.1875 33.984375 37.640625 27.21875 
Q 31.109375 20.453125 19.1875 8.296875 
" id="BitstreamVeraSans-Roman-32"/>
      </defs>
      <g transform="translate(199.26875 576.7984375)scale(0.1 -0.1)">
       <use xlink:href="#BitstreamVeraSans-Roman-31"/>
       <use x="63.623046875" xlink:href="#BitstreamVeraSans-Roman-32"/>
      </g>
     </g>
    </g>
    <g id="xtick_4">
     <g id="line2d_76">
      <g>
       <use style="stroke:#000000;stroke-width:0.5;" x="266.08125" xlink:href="#m8bc048ef9c" y="565.2"/>
      </g>
     </g>
     <g id="text_4">
      <!-- 13 -->
      <defs>
       <path d="M 40.578125 39.3125 
Q 47.65625 37.796875 51.625 33 
Q 55.609375 28.21875 55.609375 21.1875 
Q 55.609375 10.40625 48.1875 4.484375 
Q 40.765625 -1.421875 27.09375 -1.421875 
Q 22.515625 -1.421875 17.65625 -0.515625 
Q 12.796875 0.390625 7.625 2.203125 
L 7.625 11.71875 
Q 11.71875 9.328125 16.59375 8.109375 
Q 21.484375 6.890625 26.8125 6.890625 
Q 36.078125 6.890625 40.9375 10.546875 
Q 45.796875 14.203125 45.796875 21.1875 
Q 45.796875 27.640625 41.28125 31.265625 
Q 36.765625 34.90625 28.71875 34.90625 
L 20.21875 34.90625 
L 20.21875 43.015625 
L 29.109375 43.015625 
Q 36.375 43.015625 40.234375 45.921875 
Q 44.09375 48.828125 44.09375 54.296875 
Q 44.09375 59.90625 40.109375 62.90625 
Q 36.140625 65.921875 28.71875 65.921875 
Q 24.65625 65.921875 20.015625 65.03125 
Q 15.375 64.15625 9.8125 62.3125 
L 9.8125 71.09375 
Q 15.4375 72.65625 20.34375 73.4375 
Q 25.25 74.21875 29.59375 74.21875 
Q 40.828125 74.21875 47.359375 69.109375 
Q 53.90625 64.015625 53.90625 55.328125 
Q 53.90625 49.265625 50.4375 45.09375 
Q 46.96875 40.921875 40.578125 39.3125 
" id="BitstreamVeraSans-Roman-33"/>
      </defs>
      <g transform="translate(259.71875 576.7984375)scale(0.1 -0.1)">
       <use xlink:href="#BitstreamVeraSans-Roman-31"/>
       <use x="63.623046875" xlink:href="#BitstreamVeraSans-Roman-33"/>
      </g>
     </g>
    </g>
    <g id="xtick_5">
     <g id="line2d_77">
      <g>
       <use style="stroke:#000000;stroke-width:0.5;" x="326.53125" xlink:href="#m8bc048ef9c" y="565.2"/>
      </g>
     </g>
     <g id="text_5">
      <!-- 14 -->
      <defs>
       <path d="M 37.796875 64.3125 
L 12.890625 25.390625 
L 37.796875 25.390625 
z
M 35.203125 72.90625 
L 47.609375 72.90625 
L 47.609375 25.390625 
L 58.015625 25.390625 
L 58.015625 17.1875 
L 47.609375 17.1875 
L 47.609375 0 
L 37.796875 0 
L 37.796875 17.1875 
L 4.890625 17.1875 
L 4.890625 26.703125 
z
" id="BitstreamVeraSans-Roman-34"/>
      </defs>
      <g transform="translate(320.16875 576.7984375)scale(0.1 -0.1)">
       <use xlink:href="#BitstreamVeraSans-Roman-31"/>
       <use x="63.623046875" xlink:href="#BitstreamVeraSans-Roman-34"/>
      </g>
     </g>
    </g>
    <g id="xtick_6">
     <g id="line2d_78">
      <g>
       <use style="stroke:#000000;stroke-width:0.5;" x="386.98125" xlink:href="#m8bc048ef9c" y="565.2"/>
      </g>
     </g>
     <g id="text_6">
      <!-- 21 -->
      <g transform="translate(380.61875 576.7984375)scale(0.1 -0.1)">
       <use xlink:href="#BitstreamVeraSans-Roman-32"/>
       <use x="63.623046875" xlink:href="#BitstreamVeraSans-Roman-31"/>
      </g>
     </g>
    </g>
    <g id="xtick_7">
     <g id="line2d_79">
      <g>
       <use style="stroke:#000000;stroke-width:0.5;" x="447.43125" xlink:href="#m8bc048ef9c" y="565.2"/>
      </g>
     </g>
     <g id="text_7">
      <!-- 22 -->
      <g transform="translate(441.06875 576.7984375)scale(0.1 -0.1)">
       <use xlink:href="#BitstreamVeraSans-Roman-32"/>
       <use x="63.623046875" xlink:href="#BitstreamVeraSans-Roman-32"/>
      </g>
     </g>
    </g>
    <g id="xtick_8">
     <g id="line2d_80">
      <g>
       <use style="stroke:#000000;stroke-width:0.5;" x="507.88125" xlink:href="#m8bc048ef9c" y="565.2"/>
      </g>
     </g>
     <g id="text_8">
      <!-- 23 -->
      <g transform="translate(501.51875 576.7984375)scale(0.1 -0.1)">
       <use xlink:href="#BitstreamVeraSans-Roman-32"/>
       <use x="63.623046875" xlink:href="#BitstreamVeraSans-Roman-33"/>
      </g>
     </g>
    </g>
    <g id="xtick_9">
     <g id="line2d_81">
      <g>
       <use style="stroke:#000000;stroke-width:0.5;" x="568.33125" xlink:href="#m8bc048ef9c" y="565.2"/>
      </g>
     </g>
     <g id="text_9">
      <!-- 24 -->
      <g transform="translate(561.96875 576.7984375)scale(0.1 -0.1)">
       <use xlink:href="#BitstreamVeraSans-Roman-32"/>
       <use x="63.623046875" xlink:href="#BitstreamVeraSans-Roman-34"/>
      </g>
     </g>
    </g>
    <g id="xtick_10">
     <g id="line2d_82">
      <g>
       <use style="stroke:#000000;stroke-width:0.5;" x="628.78125" xlink:href="#m8bc048ef9c" y="565.2"/>
      </g>
     </g>
     <g id="text_10">
      <!-- 31 -->
      <g transform="translate(622.41875 576.7984375)scale(0.1 -0.1)">
       <use xlink:href="#BitstreamVeraSans-Roman-33"/>
       <use x="63.623046875" xlink:href="#BitstreamVeraSans-Roman-31"/>
      </g>
     </g>
    </g>
    <g id="xtick_11">
     <g id="line2d_83">
      <g>
       <use style="stroke:#000000;stroke-width:0.5;" x="689.23125" xlink:href="#m8bc048ef9c" y="565.2"/>
      </g>
     </g>
     <g id="text_11">
      <!-- 32 -->
      <g transform="translate(682.86875 576.7984375)scale(0.1 -0.1)">
       <use xlink:href="#BitstreamVeraSans-Roman-33"/>
       <use x="63.623046875" xlink:href="#BitstreamVeraSans-Roman-32"/>
      </g>
     </g>
    </g>
    <g id="xtick_12">
     <g id="line2d_84">
      <g>
       <use style="stroke:#000000;stroke-width:0.5;" x="749.68125" xlink:href="#m8bc048ef9c" y="565.2"/>
      </g>
     </g>
     <g id="text_12">
      <!-- 34 -->
      <g transform="translate(743.31875 576.7984375)scale(0.1 -0.1)">
       <use xlink:href="#BitstreamVeraSans-Roman-33"/>
       <use x="63.623046875" xlink:href="#BitstreamVeraSans-Roman-34"/>
      </g>
     </g>
    </g>
    <g id="text_13">
     <!-- Morphological type -->
     <defs>
      <path id="BitstreamVeraSans-Roman-20"/>
      <path d="M 9.8125 72.90625 
L 24.515625 72.90625 
L 43.109375 23.296875 
L 61.8125 72.90625 
L 76.515625 72.90625 
L 76.515625 0 
L 66.890625 0 
L 66.890625 64.015625 
L 48.09375 14.015625 
L 38.1875 14.015625 
L 19.390625 64.015625 
L 19.390625 0 
L 9.8125 0 
z
" id="BitstreamVeraSans-Roman-4d"/>
      <path d="M 34.28125 27.484375 
Q 23.390625 27.484375 19.1875 25 
Q 14.984375 22.515625 14.984375 16.5 
Q 14.984375 11.71875 18.140625 8.90625 
Q 21.296875 6.109375 26.703125 6.109375 
Q 34.1875 6.109375 38.703125 11.40625 
Q 43.21875 16.703125 43.21875 25.484375 
L 43.21875 27.484375 
z
M 52.203125 31.203125 
L 52.203125 0 
L 43.21875 0 
L 43.21875 8.296875 
Q 40.140625 3.328125 35.546875 0.953125 
Q 30.953125 -1.421875 24.3125 -1.421875 
Q 15.921875 -1.421875 10.953125 3.296875 
Q 6 8.015625 6 15.921875 
Q 6 25.140625 12.171875 29.828125 
Q 18.359375 34.515625 30.609375 34.515625 
L 43.21875 34.515625 
L 43.21875 35.40625 
Q 43.21875 41.609375 39.140625 45 
Q 35.0625 48.390625 27.6875 48.390625 
Q 23 48.390625 18.546875 47.265625 
Q 14.109375 46.140625 10.015625 43.890625 
L 10.015625 52.203125 
Q 14.9375 54.109375 19.578125 55.046875 
Q 24.21875 56 28.609375 56 
Q 40.484375 56 46.34375 49.84375 
Q 52.203125 43.703125 52.203125 31.203125 
" id="BitstreamVeraSans-Roman-61"/>
      <path d="M 30.609375 48.390625 
Q 23.390625 48.390625 19.1875 42.75 
Q 14.984375 37.109375 14.984375 27.296875 
Q 14.984375 17.484375 19.15625 11.84375 
Q 23.34375 6.203125 30.609375 6.203125 
Q 37.796875 6.203125 41.984375 11.859375 
Q 46.1875 17.53125 46.1875 27.296875 
Q 46.1875 37.015625 41.984375 42.703125 
Q 37.796875 48.390625 30.609375 48.390625 
M 30.609375 56 
Q 42.328125 56 49.015625 48.375 
Q 55.71875 40.765625 55.71875 27.296875 
Q 55.71875 13.875 49.015625 6.21875 
Q 42.328125 -1.421875 30.609375 -1.421875 
Q 18.84375 -1.421875 12.171875 6.21875 
Q 5.515625 13.875 5.515625 27.296875 
Q 5.515625 40.765625 12.171875 48.375 
Q 18.84375 56 30.609375 56 
" id="BitstreamVeraSans-Roman-6f"/>
      <path d="M 9.421875 75.984375 
L 18.40625 75.984375 
L 18.40625 0 
L 9.421875 0 
z
" id="BitstreamVeraSans-Roman-6c"/>
      <path d="M 9.421875 54.6875 
L 18.40625 54.6875 
L 18.40625 0 
L 9.421875 0 
z
M 9.421875 75.984375 
L 18.40625 75.984375 
L 18.40625 64.59375 
L 9.421875 64.59375 
z
" id="BitstreamVeraSans-Roman-69"/>
      <path d="M 54.890625 33.015625 
L 54.890625 0 
L 45.90625 0 
L 45.90625 32.71875 
Q 45.90625 40.484375 42.875 44.328125 
Q 39.84375 48.1875 33.796875 48.1875 
Q 26.515625 48.1875 22.3125 43.546875 
Q 18.109375 38.921875 18.109375 30.90625 
L 18.109375 0 
L 9.078125 0 
L 9.078125 75.984375 
L 18.109375 75.984375 
L 18.109375 46.1875 
Q 21.34375 51.125 25.703125 53.5625 
Q 30.078125 56 35.796875 56 
Q 45.21875 56 50.046875 50.171875 
Q 54.890625 44.34375 54.890625 33.015625 
" id="BitstreamVeraSans-Roman-68"/>
      <path d="M 48.78125 52.59375 
L 48.78125 44.1875 
Q 44.96875 46.296875 41.140625 47.34375 
Q 37.3125 48.390625 33.40625 48.390625 
Q 24.65625 48.390625 19.8125 42.84375 
Q 14.984375 37.3125 14.984375 27.296875 
Q 14.984375 17.28125 19.8125 11.734375 
Q 24.65625 6.203125 33.40625 6.203125 
Q 37.3125 6.203125 41.140625 7.25 
Q 44.96875 8.296875 48.78125 10.40625 
L 48.78125 2.09375 
Q 45.015625 0.34375 40.984375 -0.53125 
Q 36.96875 -1.421875 32.421875 -1.421875 
Q 20.0625 -1.421875 12.78125 6.34375 
Q 5.515625 14.109375 5.515625 27.296875 
Q 5.515625 40.671875 12.859375 48.328125 
Q 20.21875 56 33.015625 56 
Q 37.15625 56 41.109375 55.140625 
Q 45.0625 54.296875 48.78125 52.59375 
" id="BitstreamVeraSans-Roman-63"/>
      <path d="M 32.171875 -5.078125 
Q 28.375 -14.84375 24.75 -17.8125 
Q 21.140625 -20.796875 15.09375 -20.796875 
L 7.90625 -20.796875 
L 7.90625 -13.28125 
L 13.1875 -13.28125 
Q 16.890625 -13.28125 18.9375 -11.515625 
Q 21 -9.765625 23.484375 -3.21875 
L 25.09375 0.875 
L 2.984375 54.6875 
L 12.5 54.6875 
L 29.59375 11.921875 
L 46.6875 54.6875 
L 56.203125 54.6875 
z
" id="BitstreamVeraSans-Roman-79"/>
      <path d="M 56.203125 29.59375 
L 56.203125 25.203125 
L 14.890625 25.203125 
Q 15.484375 15.921875 20.484375 11.0625 
Q 25.484375 6.203125 34.421875 6.203125 
Q 39.59375 6.203125 44.453125 7.46875 
Q 49.3125 8.734375 54.109375 11.28125 
L 54.109375 2.78125 
Q 49.265625 0.734375 44.1875 -0.34375 
Q 39.109375 -1.421875 33.890625 -1.421875 
Q 20.796875 -1.421875 13.15625 6.1875 
Q 5.515625 13.8125 5.515625 26.8125 
Q 5.515625 40.234375 12.765625 48.109375 
Q 20.015625 56 32.328125 56 
Q 43.359375 56 49.78125 48.890625 
Q 56.203125 41.796875 56.203125 29.59375 
M 47.21875 32.234375 
Q 47.125 39.59375 43.09375 43.984375 
Q 39.0625 48.390625 32.421875 48.390625 
Q 24.90625 48.390625 20.390625 44.140625 
Q 15.875 39.890625 15.1875 32.171875 
z
" id="BitstreamVeraSans-Roman-65"/>
      <path d="M 45.40625 27.984375 
Q 45.40625 37.75 41.375 43.109375 
Q 37.359375 48.484375 30.078125 48.484375 
Q 22.859375 48.484375 18.828125 43.109375 
Q 14.796875 37.75 14.796875 27.984375 
Q 14.796875 18.265625 18.828125 12.890625 
Q 22.859375 7.515625 30.078125 7.515625 
Q 37.359375 7.515625 41.375 12.890625 
Q 45.40625 18.265625 45.40625 27.984375 
M 54.390625 6.78125 
Q 54.390625 -7.171875 48.1875 -13.984375 
Q 42 -20.796875 29.203125 -20.796875 
Q 24.46875 -20.796875 20.265625 -20.09375 
Q 16.0625 -19.390625 12.109375 -17.921875 
L 12.109375 -9.1875 
Q 16.0625 -11.328125 19.921875 -12.34375 
Q 23.78125 -13.375 27.78125 -13.375 
Q 36.625 -13.375 41.015625 -8.765625 
Q 45.40625 -4.15625 45.40625 5.171875 
L 45.40625 9.625 
Q 42.625 4.78125 38.28125 2.390625 
Q 33.9375 0 27.875 0 
Q 17.828125 0 11.671875 7.65625 
Q 5.515625 15.328125 5.515625 27.984375 
Q 5.515625 40.671875 11.671875 48.328125 
Q 17.828125 56 27.875 56 
Q 33.9375 56 38.28125 53.609375 
Q 42.625 51.21875 45.40625 46.390625 
L 45.40625 54.6875 
L 54.390625 54.6875 
z
" id="BitstreamVeraSans-Roman-67"/>
      <path d="M 41.109375 46.296875 
Q 39.59375 47.171875 37.8125 47.578125 
Q 36.03125 48 33.890625 48 
Q 26.265625 48 22.1875 43.046875 
Q 18.109375 38.09375 18.109375 28.8125 
L 18.109375 0 
L 9.078125 0 
L 9.078125 54.6875 
L 18.109375 54.6875 
L 18.109375 46.1875 
Q 20.953125 51.171875 25.484375 53.578125 
Q 30.03125 56 36.53125 56 
Q 37.453125 56 38.578125 55.875 
Q 39.703125 55.765625 41.0625 55.515625 
z
" id="BitstreamVeraSans-Roman-72"/>
      <path d="M 18.3125 70.21875 
L 18.3125 54.6875 
L 36.8125 54.6875 
L 36.8125 47.703125 
L 18.3125 47.703125 
L 18.3125 18.015625 
Q 18.3125 11.328125 20.140625 9.421875 
Q 21.96875 7.515625 27.59375 7.515625 
L 36.8125 7.515625 
L 36.8125 0 
L 27.59375 0 
Q 17.1875 0 13.234375 3.875 
Q 9.28125 7.765625 9.28125 18.015625 
L 9.28125 47.703125 
L 2.6875 47.703125 
L 2.6875 54.6875 
L 9.28125 54.6875 
L 9.28125 70.21875 
z
" id="BitstreamVeraSans-Roman-74"/>
      <path d="M 18.109375 8.203125 
L 18.109375 -20.796875 
L 9.078125 -20.796875 
L 9.078125 54.6875 
L 18.109375 54.6875 
L 18.109375 46.390625 
Q 20.953125 51.265625 25.265625 53.625 
Q 29.59375 56 35.59375 56 
Q 45.5625 56 51.78125 48.09375 
Q 58.015625 40.1875 58.015625 27.296875 
Q 58.015625 14.40625 51.78125 6.484375 
Q 45.5625 -1.421875 35.59375 -1.421875 
Q 29.59375 -1.421875 25.265625 0.953125 
Q 20.953125 3.328125 18.109375 8.203125 
M 48.6875 27.296875 
Q 48.6875 37.203125 44.609375 42.84375 
Q 40.53125 48.484375 33.40625 48.484375 
Q 26.265625 48.484375 22.1875 42.84375 
Q 18.109375 37.203125 18.109375 27.296875 
Q 18.109375 17.390625 22.1875 11.75 
Q 26.265625 6.109375 33.40625 6.109375 
Q 40.53125 6.109375 44.609375 11.75 
Q 48.6875 17.390625 48.6875 27.296875 
" id="BitstreamVeraSans-Roman-70"/>
     </defs>
     <g transform="translate(369.4015625 591.4765625)scale(0.1 -0.1)">
      <use xlink:href="#BitstreamVeraSans-Roman-4d"/>
      <use x="86.279296875" xlink:href="#BitstreamVeraSans-Roman-6f"/>
      <use x="147.4609375" xlink:href="#BitstreamVeraSans-Roman-72"/>
      <use x="188.57421875" xlink:href="#BitstreamVeraSans-Roman-70"/>
      <use x="252.05078125" xlink:href="#BitstreamVeraSans-Roman-68"/>
      <use x="315.4296875" xlink:href="#BitstreamVeraSans-Roman-6f"/>
      <use x="376.611328125" xlink:href="#BitstreamVeraSans-Roman-6c"/>
      <use x="404.39453125" xlink:href="#BitstreamVeraSans-Roman-6f"/>
      <use x="465.576171875" xlink:href="#BitstreamVeraSans-Roman-67"/>
      <use x="529.052734375" xlink:href="#BitstreamVeraSans-Roman-69"/>
      <use x="556.8359375" xlink:href="#BitstreamVeraSans-Roman-63"/>
      <use x="611.81640625" xlink:href="#BitstreamVeraSans-Roman-61"/>
      <use x="673.095703125" xlink:href="#BitstreamVeraSans-Roman-6c"/>
      <use x="700.87890625" xlink:href="#BitstreamVeraSans-Roman-20"/>
      <use x="732.666015625" xlink:href="#BitstreamVeraSans-Roman-74"/>
      <use x="771.875" xlink:href="#BitstreamVeraSans-Roman-79"/>
      <use x="831.0546875" xlink:href="#BitstreamVeraSans-Roman-70"/>
      <use x="894.53125" xlink:href="#BitstreamVeraSans-Roman-65"/>
     </g>
    </g>
   </g>
   <g id="matplotlib.axis_2">
    <g id="ytick_1">
     <g id="line2d_85">
      <defs>
       <path d="M 0 0 
L 4 0 
" id="md3fe311478" style="stroke:#000000;stroke-width:0.5;"/>
      </defs>
      <g>
       <use style="stroke:#000000;stroke-width:0.5;" x="54.50625" xlink:href="#md3fe311478" y="565.2"/>
      </g>
     </g>
     <g id="text_14">
      <!-- 0.004 -->
      <defs>
       <path d="M 10.6875 12.40625 
L 21 12.40625 
L 21 0 
L 10.6875 0 
z
" id="BitstreamVeraSans-Roman-2e"/>
      </defs>
      <g transform="translate(21.878125 567.959375)scale(0.1 -0.1)">
       <use xlink:href="#BitstreamVeraSans-Roman-30"/>
       <use x="63.623046875" xlink:href="#BitstreamVeraSans-Roman-2e"/>
       <use x="95.41015625" xlink:href="#BitstreamVeraSans-Roman-30"/>
       <use x="159.033203125" xlink:href="#BitstreamVeraSans-Roman-30"/>
       <use x="222.65625" xlink:href="#BitstreamVeraSans-Roman-34"/>
      </g>
     </g>
    </g>
    <g id="ytick_2">
     <g id="line2d_86">
      <g>
       <use style="stroke:#000000;stroke-width:0.5;" x="54.50625" xlink:href="#md3fe311478" y="543.738461538"/>
      </g>
     </g>
     <g id="text_15">
      <!-- 0.005 -->
      <defs>
       <path d="M 10.796875 72.90625 
L 49.515625 72.90625 
L 49.515625 64.59375 
L 19.828125 64.59375 
L 19.828125 46.734375 
Q 21.96875 47.46875 24.109375 47.828125 
Q 26.265625 48.1875 28.421875 48.1875 
Q 40.625 48.1875 47.75 41.5 
Q 54.890625 34.8125 54.890625 23.390625 
Q 54.890625 11.625 47.5625 5.09375 
Q 40.234375 -1.421875 26.90625 -1.421875 
Q 22.3125 -1.421875 17.546875 -0.640625 
Q 12.796875 0.140625 7.71875 1.703125 
L 7.71875 11.625 
Q 12.109375 9.234375 16.796875 8.0625 
Q 21.484375 6.890625 26.703125 6.890625 
Q 35.15625 6.890625 40.078125 11.328125 
Q 45.015625 15.765625 45.015625 23.390625 
Q 45.015625 31 40.078125 35.4375 
Q 35.15625 39.890625 26.703125 39.890625 
Q 22.75 39.890625 18.8125 39.015625 
Q 14.890625 38.140625 10.796875 36.28125 
z
" id="BitstreamVeraSans-Roman-35"/>
      </defs>
      <g transform="translate(21.878125 546.497836538)scale(0.1 -0.1)">
       <use xlink:href="#BitstreamVeraSans-Roman-30"/>
       <use x="63.623046875" xlink:href="#BitstreamVeraSans-Roman-2e"/>
       <use x="95.41015625" xlink:href="#BitstreamVeraSans-Roman-30"/>
       <use x="159.033203125" xlink:href="#BitstreamVeraSans-Roman-30"/>
       <use x="222.65625" xlink:href="#BitstreamVeraSans-Roman-35"/>
      </g>
     </g>
    </g>
    <g id="ytick_3">
     <g id="line2d_87">
      <g>
       <use style="stroke:#000000;stroke-width:0.5;" x="54.50625" xlink:href="#md3fe311478" y="522.276923077"/>
      </g>
     </g>
     <g id="text_16">
      <!-- 0.006 -->
      <defs>
       <path d="M 33.015625 40.375 
Q 26.375 40.375 22.484375 35.828125 
Q 18.609375 31.296875 18.609375 23.390625 
Q 18.609375 15.53125 22.484375 10.953125 
Q 26.375 6.390625 33.015625 6.390625 
Q 39.65625 6.390625 43.53125 10.953125 
Q 47.40625 15.53125 47.40625 23.390625 
Q 47.40625 31.296875 43.53125 35.828125 
Q 39.65625 40.375 33.015625 40.375 
M 52.59375 71.296875 
L 52.59375 62.3125 
Q 48.875 64.0625 45.09375 64.984375 
Q 41.3125 65.921875 37.59375 65.921875 
Q 27.828125 65.921875 22.671875 59.328125 
Q 17.53125 52.734375 16.796875 39.40625 
Q 19.671875 43.65625 24.015625 45.921875 
Q 28.375 48.1875 33.59375 48.1875 
Q 44.578125 48.1875 50.953125 41.515625 
Q 57.328125 34.859375 57.328125 23.390625 
Q 57.328125 12.15625 50.6875 5.359375 
Q 44.046875 -1.421875 33.015625 -1.421875 
Q 20.359375 -1.421875 13.671875 8.265625 
Q 6.984375 17.96875 6.984375 36.375 
Q 6.984375 53.65625 15.1875 63.9375 
Q 23.390625 74.21875 37.203125 74.21875 
Q 40.921875 74.21875 44.703125 73.484375 
Q 48.484375 72.75 52.59375 71.296875 
" id="BitstreamVeraSans-Roman-36"/>
      </defs>
      <g transform="translate(21.878125 525.036298077)scale(0.1 -0.1)">
       <use xlink:href="#BitstreamVeraSans-Roman-30"/>
       <use x="63.623046875" xlink:href="#BitstreamVeraSans-Roman-2e"/>
       <use x="95.41015625" xlink:href="#BitstreamVeraSans-Roman-30"/>
       <use x="159.033203125" xlink:href="#BitstreamVeraSans-Roman-30"/>
       <use x="222.65625" xlink:href="#BitstreamVeraSans-Roman-36"/>
      </g>
     </g>
    </g>
    <g id="ytick_4">
     <g id="line2d_88">
      <g>
       <use style="stroke:#000000;stroke-width:0.5;" x="54.50625" xlink:href="#md3fe311478" y="500.815384615"/>
      </g>
     </g>
     <g id="text_17">
      <!-- 0.007 -->
      <defs>
       <path d="M 8.203125 72.90625 
L 55.078125 72.90625 
L 55.078125 68.703125 
L 28.609375 0 
L 18.3125 0 
L 43.21875 64.59375 
L 8.203125 64.59375 
z
" id="BitstreamVeraSans-Roman-37"/>
      </defs>
      <g transform="translate(21.878125 503.574759615)scale(0.1 -0.1)">
       <use xlink:href="#BitstreamVeraSans-Roman-30"/>
       <use x="63.623046875" xlink:href="#BitstreamVeraSans-Roman-2e"/>
       <use x="95.41015625" xlink:href="#BitstreamVeraSans-Roman-30"/>
       <use x="159.033203125" xlink:href="#BitstreamVeraSans-Roman-30"/>
       <use x="222.65625" xlink:href="#BitstreamVeraSans-Roman-37"/>
      </g>
     </g>
    </g>
    <g id="ytick_5">
     <g id="line2d_89">
      <g>
       <use style="stroke:#000000;stroke-width:0.5;" x="54.50625" xlink:href="#md3fe311478" y="479.353846154"/>
      </g>
     </g>
     <g id="text_18">
      <!-- 0.008 -->
      <defs>
       <path d="M 31.78125 34.625 
Q 24.75 34.625 20.71875 30.859375 
Q 16.703125 27.09375 16.703125 20.515625 
Q 16.703125 13.921875 20.71875 10.15625 
Q 24.75 6.390625 31.78125 6.390625 
Q 38.8125 6.390625 42.859375 10.171875 
Q 46.921875 13.96875 46.921875 20.515625 
Q 46.921875 27.09375 42.890625 30.859375 
Q 38.875 34.625 31.78125 34.625 
M 21.921875 38.8125 
Q 15.578125 40.375 12.03125 44.71875 
Q 8.5 49.078125 8.5 55.328125 
Q 8.5 64.0625 14.71875 69.140625 
Q 20.953125 74.21875 31.78125 74.21875 
Q 42.671875 74.21875 48.875 69.140625 
Q 55.078125 64.0625 55.078125 55.328125 
Q 55.078125 49.078125 51.53125 44.71875 
Q 48 40.375 41.703125 38.8125 
Q 48.828125 37.15625 52.796875 32.3125 
Q 56.78125 27.484375 56.78125 20.515625 
Q 56.78125 9.90625 50.3125 4.234375 
Q 43.84375 -1.421875 31.78125 -1.421875 
Q 19.734375 -1.421875 13.25 4.234375 
Q 6.78125 9.90625 6.78125 20.515625 
Q 6.78125 27.484375 10.78125 32.3125 
Q 14.796875 37.15625 21.921875 38.8125 
M 18.3125 54.390625 
Q 18.3125 48.734375 21.84375 45.5625 
Q 25.390625 42.390625 31.78125 42.390625 
Q 38.140625 42.390625 41.71875 45.5625 
Q 45.3125 48.734375 45.3125 54.390625 
Q 45.3125 60.0625 41.71875 63.234375 
Q 38.140625 66.40625 31.78125 66.40625 
Q 25.390625 66.40625 21.84375 63.234375 
Q 18.3125 60.0625 18.3125 54.390625 
" id="BitstreamVeraSans-Roman-38"/>
      </defs>
      <g transform="translate(21.878125 482.113221154)scale(0.1 -0.1)">
       <use xlink:href="#BitstreamVeraSans-Roman-30"/>
       <use x="63.623046875" xlink:href="#BitstreamVeraSans-Roman-2e"/>
       <use x="95.41015625" xlink:href="#BitstreamVeraSans-Roman-30"/>
       <use x="159.033203125" xlink:href="#BitstreamVeraSans-Roman-30"/>
       <use x="222.65625" xlink:href="#BitstreamVeraSans-Roman-38"/>
      </g>
     </g>
    </g>
    <g id="ytick_6">
     <g id="line2d_90">
      <g>
       <use style="stroke:#000000;stroke-width:0.5;" x="54.50625" xlink:href="#md3fe311478" y="457.892307692"/>
      </g>
     </g>
     <g id="text_19">
      <!-- 0.009 -->
      <defs>
       <path d="M 10.984375 1.515625 
L 10.984375 10.5 
Q 14.703125 8.734375 18.5 7.8125 
Q 22.3125 6.890625 25.984375 6.890625 
Q 35.75 6.890625 40.890625 13.453125 
Q 46.046875 20.015625 46.78125 33.40625 
Q 43.953125 29.203125 39.59375 26.953125 
Q 35.25 24.703125 29.984375 24.703125 
Q 19.046875 24.703125 12.671875 31.3125 
Q 6.296875 37.9375 6.296875 49.421875 
Q 6.296875 60.640625 12.9375 67.421875 
Q 19.578125 74.21875 30.609375 74.21875 
Q 43.265625 74.21875 49.921875 64.515625 
Q 56.59375 54.828125 56.59375 36.375 
Q 56.59375 19.140625 48.40625 8.859375 
Q 40.234375 -1.421875 26.421875 -1.421875 
Q 22.703125 -1.421875 18.890625 -0.6875 
Q 15.09375 0.046875 10.984375 1.515625 
M 30.609375 32.421875 
Q 37.25 32.421875 41.125 36.953125 
Q 45.015625 41.5 45.015625 49.421875 
Q 45.015625 57.28125 41.125 61.84375 
Q 37.25 66.40625 30.609375 66.40625 
Q 23.96875 66.40625 20.09375 61.84375 
Q 16.21875 57.28125 16.21875 49.421875 
Q 16.21875 41.5 20.09375 36.953125 
Q 23.96875 32.421875 30.609375 32.421875 
" id="BitstreamVeraSans-Roman-39"/>
      </defs>
      <g transform="translate(21.878125 460.651682692)scale(0.1 -0.1)">
       <use xlink:href="#BitstreamVeraSans-Roman-30"/>
       <use x="63.623046875" xlink:href="#BitstreamVeraSans-Roman-2e"/>
       <use x="95.41015625" xlink:href="#BitstreamVeraSans-Roman-30"/>
       <use x="159.033203125" xlink:href="#BitstreamVeraSans-Roman-30"/>
       <use x="222.65625" xlink:href="#BitstreamVeraSans-Roman-39"/>
      </g>
     </g>
    </g>
    <g id="ytick_7">
     <g id="line2d_91">
      <g>
       <use style="stroke:#000000;stroke-width:0.5;" x="54.50625" xlink:href="#md3fe311478" y="436.430769231"/>
      </g>
     </g>
     <g id="text_20">
      <!-- 0.010 -->
      <g transform="translate(21.878125 439.190144231)scale(0.1 -0.1)">
       <use xlink:href="#BitstreamVeraSans-Roman-30"/>
       <use x="63.623046875" xlink:href="#BitstreamVeraSans-Roman-2e"/>
       <use x="95.41015625" xlink:href="#BitstreamVeraSans-Roman-30"/>
       <use x="159.033203125" xlink:href="#BitstreamVeraSans-Roman-31"/>
       <use x="222.65625" xlink:href="#BitstreamVeraSans-Roman-30"/>
      </g>
     </g>
    </g>
    <g id="ytick_8">
     <g id="line2d_92">
      <g>
       <use style="stroke:#000000;stroke-width:0.5;" x="54.50625" xlink:href="#md3fe311478" y="414.969230769"/>
      </g>
     </g>
     <g id="text_21">
      <!-- 0.011 -->
      <g transform="translate(21.878125 417.728605769)scale(0.1 -0.1)">
       <use xlink:href="#BitstreamVeraSans-Roman-30"/>
       <use x="63.623046875" xlink:href="#BitstreamVeraSans-Roman-2e"/>
       <use x="95.41015625" xlink:href="#BitstreamVeraSans-Roman-30"/>
       <use x="159.033203125" xlink:href="#BitstreamVeraSans-Roman-31"/>
       <use x="222.65625" xlink:href="#BitstreamVeraSans-Roman-31"/>
      </g>
     </g>
    </g>
    <g id="ytick_9">
     <g id="line2d_93">
      <g>
       <use style="stroke:#000000;stroke-width:0.5;" x="54.50625" xlink:href="#md3fe311478" y="393.507692308"/>
      </g>
     </g>
     <g id="text_22">
      <!-- 0.012 -->
      <g transform="translate(21.878125 396.267067308)scale(0.1 -0.1)">
       <use xlink:href="#BitstreamVeraSans-Roman-30"/>
       <use x="63.623046875" xlink:href="#BitstreamVeraSans-Roman-2e"/>
       <use x="95.41015625" xlink:href="#BitstreamVeraSans-Roman-30"/>
       <use x="159.033203125" xlink:href="#BitstreamVeraSans-Roman-31"/>
       <use x="222.65625" xlink:href="#BitstreamVeraSans-Roman-32"/>
      </g>
     </g>
    </g>
    <g id="ytick_10">
     <g id="line2d_94">
      <g>
       <use style="stroke:#000000;stroke-width:0.5;" x="54.50625" xlink:href="#md3fe311478" y="372.046153846"/>
      </g>
     </g>
     <g id="text_23">
      <!-- 0.013 -->
      <g transform="translate(21.878125 374.805528846)scale(0.1 -0.1)">
       <use xlink:href="#BitstreamVeraSans-Roman-30"/>
       <use x="63.623046875" xlink:href="#BitstreamVeraSans-Roman-2e"/>
       <use x="95.41015625" xlink:href="#BitstreamVeraSans-Roman-30"/>
       <use x="159.033203125" xlink:href="#BitstreamVeraSans-Roman-31"/>
       <use x="222.65625" xlink:href="#BitstreamVeraSans-Roman-33"/>
      </g>
     </g>
    </g>
    <g id="ytick_11">
     <g id="line2d_95">
      <g>
       <use style="stroke:#000000;stroke-width:0.5;" x="54.50625" xlink:href="#md3fe311478" y="350.584615385"/>
      </g>
     </g>
     <g id="text_24">
      <!-- 0.014 -->
      <g transform="translate(21.878125 353.343990385)scale(0.1 -0.1)">
       <use xlink:href="#BitstreamVeraSans-Roman-30"/>
       <use x="63.623046875" xlink:href="#BitstreamVeraSans-Roman-2e"/>
       <use x="95.41015625" xlink:href="#BitstreamVeraSans-Roman-30"/>
       <use x="159.033203125" xlink:href="#BitstreamVeraSans-Roman-31"/>
       <use x="222.65625" xlink:href="#BitstreamVeraSans-Roman-34"/>
      </g>
     </g>
    </g>
    <g id="ytick_12">
     <g id="line2d_96">
      <g>
       <use style="stroke:#000000;stroke-width:0.5;" x="54.50625" xlink:href="#md3fe311478" y="329.123076923"/>
      </g>
     </g>
     <g id="text_25">
      <!-- 0.015 -->
      <g transform="translate(21.878125 331.882451923)scale(0.1 -0.1)">
       <use xlink:href="#BitstreamVeraSans-Roman-30"/>
       <use x="63.623046875" xlink:href="#BitstreamVeraSans-Roman-2e"/>
       <use x="95.41015625" xlink:href="#BitstreamVeraSans-Roman-30"/>
       <use x="159.033203125" xlink:href="#BitstreamVeraSans-Roman-31"/>
       <use x="222.65625" xlink:href="#BitstreamVeraSans-Roman-35"/>
      </g>
     </g>
    </g>
    <g id="ytick_13">
     <g id="line2d_97">
      <g>
       <use style="stroke:#000000;stroke-width:0.5;" x="54.50625" xlink:href="#md3fe311478" y="307.661538462"/>
      </g>
     </g>
     <g id="text_26">
      <!-- 0.016 -->
      <g transform="translate(21.878125 310.420913462)scale(0.1 -0.1)">
       <use xlink:href="#BitstreamVeraSans-Roman-30"/>
       <use x="63.623046875" xlink:href="#BitstreamVeraSans-Roman-2e"/>
       <use x="95.41015625" xlink:href="#BitstreamVeraSans-Roman-30"/>
       <use x="159.033203125" xlink:href="#BitstreamVeraSans-Roman-31"/>
       <use x="222.65625" xlink:href="#BitstreamVeraSans-Roman-36"/>
      </g>
     </g>
    </g>
    <g id="ytick_14">
     <g id="line2d_98">
      <g>
       <use style="stroke:#000000;stroke-width:0.5;" x="54.50625" xlink:href="#md3fe311478" y="286.2"/>
      </g>
     </g>
     <g id="text_27">
      <!-- 0.017 -->
      <g transform="translate(21.878125 288.959375)scale(0.1 -0.1)">
       <use xlink:href="#BitstreamVeraSans-Roman-30"/>
       <use x="63.623046875" xlink:href="#BitstreamVeraSans-Roman-2e"/>
       <use x="95.41015625" xlink:href="#BitstreamVeraSans-Roman-30"/>
       <use x="159.033203125" xlink:href="#BitstreamVeraSans-Roman-31"/>
       <use x="222.65625" xlink:href="#BitstreamVeraSans-Roman-37"/>
      </g>
     </g>
    </g>
    <g id="ytick_15">
     <g id="line2d_99">
      <g>
       <use style="stroke:#000000;stroke-width:0.5;" x="54.50625" xlink:href="#md3fe311478" y="264.738461538"/>
      </g>
     </g>
     <g id="text_28">
      <!-- 0.018 -->
      <g transform="translate(21.878125 267.497836538)scale(0.1 -0.1)">
       <use xlink:href="#BitstreamVeraSans-Roman-30"/>
       <use x="63.623046875" xlink:href="#BitstreamVeraSans-Roman-2e"/>
       <use x="95.41015625" xlink:href="#BitstreamVeraSans-Roman-30"/>
       <use x="159.033203125" xlink:href="#BitstreamVeraSans-Roman-31"/>
       <use x="222.65625" xlink:href="#BitstreamVeraSans-Roman-38"/>
      </g>
     </g>
    </g>
    <g id="ytick_16">
     <g id="line2d_100">
      <g>
       <use style="stroke:#000000;stroke-width:0.5;" x="54.50625" xlink:href="#md3fe311478" y="243.276923077"/>
      </g>
     </g>
     <g id="text_29">
      <!-- 0.019 -->
      <g transform="translate(21.878125 246.036298077)scale(0.1 -0.1)">
       <use xlink:href="#BitstreamVeraSans-Roman-30"/>
       <use x="63.623046875" xlink:href="#BitstreamVeraSans-Roman-2e"/>
       <use x="95.41015625" xlink:href="#BitstreamVeraSans-Roman-30"/>
       <use x="159.033203125" xlink:href="#BitstreamVeraSans-Roman-31"/>
       <use x="222.65625" xlink:href="#BitstreamVeraSans-Roman-39"/>
      </g>
     </g>
    </g>
    <g id="ytick_17">
     <g id="line2d_101">
      <g>
       <use style="stroke:#000000;stroke-width:0.5;" x="54.50625" xlink:href="#md3fe311478" y="221.815384615"/>
      </g>
     </g>
     <g id="text_30">
      <!-- 0.020 -->
      <g transform="translate(21.878125 224.574759615)scale(0.1 -0.1)">
       <use xlink:href="#BitstreamVeraSans-Roman-30"/>
       <use x="63.623046875" xlink:href="#BitstreamVeraSans-Roman-2e"/>
       <use x="95.41015625" xlink:href="#BitstreamVeraSans-Roman-30"/>
       <use x="159.033203125" xlink:href="#BitstreamVeraSans-Roman-32"/>
       <use x="222.65625" xlink:href="#BitstreamVeraSans-Roman-30"/>
      </g>
     </g>
    </g>
    <g id="ytick_18">
     <g id="line2d_102">
      <g>
       <use style="stroke:#000000;stroke-width:0.5;" x="54.50625" xlink:href="#md3fe311478" y="200.353846154"/>
      </g>
     </g>
     <g id="text_31">
      <!-- 0.021 -->
      <g transform="translate(21.878125 203.113221154)scale(0.1 -0.1)">
       <use xlink:href="#BitstreamVeraSans-Roman-30"/>
       <use x="63.623046875" xlink:href="#BitstreamVeraSans-Roman-2e"/>
       <use x="95.41015625" xlink:href="#BitstreamVeraSans-Roman-30"/>
       <use x="159.033203125" xlink:href="#BitstreamVeraSans-Roman-32"/>
       <use x="222.65625" xlink:href="#BitstreamVeraSans-Roman-31"/>
      </g>
     </g>
    </g>
    <g id="ytick_19">
     <g id="line2d_103">
      <g>
       <use style="stroke:#000000;stroke-width:0.5;" x="54.50625" xlink:href="#md3fe311478" y="178.892307692"/>
      </g>
     </g>
     <g id="text_32">
      <!-- 0.022 -->
      <g transform="translate(21.878125 181.651682692)scale(0.1 -0.1)">
       <use xlink:href="#BitstreamVeraSans-Roman-30"/>
       <use x="63.623046875" xlink:href="#BitstreamVeraSans-Roman-2e"/>
       <use x="95.41015625" xlink:href="#BitstreamVeraSans-Roman-30"/>
       <use x="159.033203125" xlink:href="#BitstreamVeraSans-Roman-32"/>
       <use x="222.65625" xlink:href="#BitstreamVeraSans-Roman-32"/>
      </g>
     </g>
    </g>
    <g id="ytick_20">
     <g id="line2d_104">
      <g>
       <use style="stroke:#000000;stroke-width:0.5;" x="54.50625" xlink:href="#md3fe311478" y="157.430769231"/>
      </g>
     </g>
     <g id="text_33">
      <!-- 0.023 -->
      <g transform="translate(21.878125 160.190144231)scale(0.1 -0.1)">
       <use xlink:href="#BitstreamVeraSans-Roman-30"/>
       <use x="63.623046875" xlink:href="#BitstreamVeraSans-Roman-2e"/>
       <use x="95.41015625" xlink:href="#BitstreamVeraSans-Roman-30"/>
       <use x="159.033203125" xlink:href="#BitstreamVeraSans-Roman-32"/>
       <use x="222.65625" xlink:href="#BitstreamVeraSans-Roman-33"/>
      </g>
     </g>
    </g>
    <g id="ytick_21">
     <g id="line2d_105">
      <g>
       <use style="stroke:#000000;stroke-width:0.5;" x="54.50625" xlink:href="#md3fe311478" y="135.969230769"/>
      </g>
     </g>
     <g id="text_34">
      <!-- 0.024 -->
      <g transform="translate(21.878125 138.728605769)scale(0.1 -0.1)">
       <use xlink:href="#BitstreamVeraSans-Roman-30"/>
       <use x="63.623046875" xlink:href="#BitstreamVeraSans-Roman-2e"/>
       <use x="95.41015625" xlink:href="#BitstreamVeraSans-Roman-30"/>
       <use x="159.033203125" xlink:href="#BitstreamVeraSans-Roman-32"/>
       <use x="222.65625" xlink:href="#BitstreamVeraSans-Roman-34"/>
      </g>
     </g>
    </g>
    <g id="ytick_22">
     <g id="line2d_106">
      <g>
       <use style="stroke:#000000;stroke-width:0.5;" x="54.50625" xlink:href="#md3fe311478" y="114.507692308"/>
      </g>
     </g>
     <g id="text_35">
      <!-- 0.025 -->
      <g transform="translate(21.878125 117.267067308)scale(0.1 -0.1)">
       <use xlink:href="#BitstreamVeraSans-Roman-30"/>
       <use x="63.623046875" xlink:href="#BitstreamVeraSans-Roman-2e"/>
       <use x="95.41015625" xlink:href="#BitstreamVeraSans-Roman-30"/>
       <use x="159.033203125" xlink:href="#BitstreamVeraSans-Roman-32"/>
       <use x="222.65625" xlink:href="#BitstreamVeraSans-Roman-35"/>
      </g>
     </g>
    </g>
    <g id="ytick_23">
     <g id="line2d_107">
      <g>
       <use style="stroke:#000000;stroke-width:0.5;" x="54.50625" xlink:href="#md3fe311478" y="93.0461538462"/>
      </g>
     </g>
     <g id="text_36">
      <!-- 0.026 -->
      <g transform="translate(21.878125 95.8055288462)scale(0.1 -0.1)">
       <use xlink:href="#BitstreamVeraSans-Roman-30"/>
       <use x="63.623046875" xlink:href="#BitstreamVeraSans-Roman-2e"/>
       <use x="95.41015625" xlink:href="#BitstreamVeraSans-Roman-30"/>
       <use x="159.033203125" xlink:href="#BitstreamVeraSans-Roman-32"/>
       <use x="222.65625" xlink:href="#BitstreamVeraSans-Roman-36"/>
      </g>
     </g>
    </g>
    <g id="ytick_24">
     <g id="line2d_108">
      <g>
       <use style="stroke:#000000;stroke-width:0.5;" x="54.50625" xlink:href="#md3fe311478" y="71.5846153846"/>
      </g>
     </g>
     <g id="text_37">
      <!-- 0.027 -->
      <g transform="translate(21.878125 74.3439903846)scale(0.1 -0.1)">
       <use xlink:href="#BitstreamVeraSans-Roman-30"/>
       <use x="63.623046875" xlink:href="#BitstreamVeraSans-Roman-2e"/>
       <use x="95.41015625" xlink:href="#BitstreamVeraSans-Roman-30"/>
       <use x="159.033203125" xlink:href="#BitstreamVeraSans-Roman-32"/>
       <use x="222.65625" xlink:href="#BitstreamVeraSans-Roman-37"/>
      </g>
     </g>
    </g>
    <g id="ytick_25">
     <g id="line2d_109">
      <g>
       <use style="stroke:#000000;stroke-width:0.5;" x="54.50625" xlink:href="#md3fe311478" y="50.1230769231"/>
      </g>
     </g>
     <g id="text_38">
      <!-- 0.028 -->
      <g transform="translate(21.878125 52.8824519231)scale(0.1 -0.1)">
       <use xlink:href="#BitstreamVeraSans-Roman-30"/>
       <use x="63.623046875" xlink:href="#BitstreamVeraSans-Roman-2e"/>
       <use x="95.41015625" xlink:href="#BitstreamVeraSans-Roman-30"/>
       <use x="159.033203125" xlink:href="#BitstreamVeraSans-Roman-32"/>
       <use x="222.65625" xlink:href="#BitstreamVeraSans-Roman-38"/>
      </g>
     </g>
    </g>
    <g id="ytick_26">
     <g id="line2d_110">
      <g>
       <use style="stroke:#000000;stroke-width:0.5;" x="54.50625" xlink:href="#md3fe311478" y="28.6615384615"/>
      </g>
     </g>
     <g id="text_39">
      <!-- 0.029 -->
      <g transform="translate(21.878125 31.4209134615)scale(0.1 -0.1)">
       <use xlink:href="#BitstreamVeraSans-Roman-30"/>
       <use x="63.623046875" xlink:href="#BitstreamVeraSans-Roman-2e"/>
       <use x="95.41015625" xlink:href="#BitstreamVeraSans-Roman-30"/>
       <use x="159.033203125" xlink:href="#BitstreamVeraSans-Roman-32"/>
       <use x="222.65625" xlink:href="#BitstreamVeraSans-Roman-39"/>
      </g>
     </g>
    </g>
    <g id="text_40">
     <!-- Threshold parameter -->
     <defs>
      <path d="M 45.40625 46.390625 
L 45.40625 75.984375 
L 54.390625 75.984375 
L 54.390625 0 
L 45.40625 0 
L 45.40625 8.203125 
Q 42.578125 3.328125 38.25 0.953125 
Q 33.9375 -1.421875 27.875 -1.421875 
Q 17.96875 -1.421875 11.734375 6.484375 
Q 5.515625 14.40625 5.515625 27.296875 
Q 5.515625 40.1875 11.734375 48.09375 
Q 17.96875 56 27.875 56 
Q 33.9375 56 38.25 53.625 
Q 42.578125 51.265625 45.40625 46.390625 
M 14.796875 27.296875 
Q 14.796875 17.390625 18.875 11.75 
Q 22.953125 6.109375 30.078125 6.109375 
Q 37.203125 6.109375 41.296875 11.75 
Q 45.40625 17.390625 45.40625 27.296875 
Q 45.40625 37.203125 41.296875 42.84375 
Q 37.203125 48.484375 30.078125 48.484375 
Q 22.953125 48.484375 18.875 42.84375 
Q 14.796875 37.203125 14.796875 27.296875 
" id="BitstreamVeraSans-Roman-64"/>
      <path d="M -0.296875 72.90625 
L 61.375 72.90625 
L 61.375 64.59375 
L 35.5 64.59375 
L 35.5 0 
L 25.59375 0 
L 25.59375 64.59375 
L -0.296875 64.59375 
z
" id="BitstreamVeraSans-Roman-54"/>
      <path d="M 44.28125 53.078125 
L 44.28125 44.578125 
Q 40.484375 46.53125 36.375 47.5 
Q 32.28125 48.484375 27.875 48.484375 
Q 21.1875 48.484375 17.84375 46.4375 
Q 14.5 44.390625 14.5 40.28125 
Q 14.5 37.15625 16.890625 35.375 
Q 19.28125 33.59375 26.515625 31.984375 
L 29.59375 31.296875 
Q 39.15625 29.25 43.1875 25.515625 
Q 47.21875 21.78125 47.21875 15.09375 
Q 47.21875 7.46875 41.1875 3.015625 
Q 35.15625 -1.421875 24.609375 -1.421875 
Q 20.21875 -1.421875 15.453125 -0.5625 
Q 10.6875 0.296875 5.421875 2 
L 5.421875 11.28125 
Q 10.40625 8.6875 15.234375 7.390625 
Q 20.0625 6.109375 24.8125 6.109375 
Q 31.15625 6.109375 34.5625 8.28125 
Q 37.984375 10.453125 37.984375 14.40625 
Q 37.984375 18.0625 35.515625 20.015625 
Q 33.0625 21.96875 24.703125 23.78125 
L 21.578125 24.515625 
Q 13.234375 26.265625 9.515625 29.90625 
Q 5.8125 33.546875 5.8125 39.890625 
Q 5.8125 47.609375 11.28125 51.796875 
Q 16.75 56 26.8125 56 
Q 31.78125 56 36.171875 55.265625 
Q 40.578125 54.546875 44.28125 53.078125 
" id="BitstreamVeraSans-Roman-73"/>
      <path d="M 52 44.1875 
Q 55.375 50.25 60.0625 53.125 
Q 64.75 56 71.09375 56 
Q 79.640625 56 84.28125 50.015625 
Q 88.921875 44.046875 88.921875 33.015625 
L 88.921875 0 
L 79.890625 0 
L 79.890625 32.71875 
Q 79.890625 40.578125 77.09375 44.375 
Q 74.3125 48.1875 68.609375 48.1875 
Q 61.625 48.1875 57.5625 43.546875 
Q 53.515625 38.921875 53.515625 30.90625 
L 53.515625 0 
L 44.484375 0 
L 44.484375 32.71875 
Q 44.484375 40.625 41.703125 44.40625 
Q 38.921875 48.1875 33.109375 48.1875 
Q 26.21875 48.1875 22.15625 43.53125 
Q 18.109375 38.875 18.109375 30.90625 
L 18.109375 0 
L 9.078125 0 
L 9.078125 54.6875 
L 18.109375 54.6875 
L 18.109375 46.1875 
Q 21.1875 51.21875 25.484375 53.609375 
Q 29.78125 56 35.6875 56 
Q 41.65625 56 45.828125 52.96875 
Q 50 49.953125 52 44.1875 
" id="BitstreamVeraSans-Roman-6d"/>
     </defs>
     <g transform="translate(14.7984375 338.93515625)rotate(-90.0)scale(0.1 -0.1)">
      <use xlink:href="#BitstreamVeraSans-Roman-54"/>
      <use x="61.083984375" xlink:href="#BitstreamVeraSans-Roman-68"/>
      <use x="124.462890625" xlink:href="#BitstreamVeraSans-Roman-72"/>
      <use x="165.544921875" xlink:href="#BitstreamVeraSans-Roman-65"/>
      <use x="227.068359375" xlink:href="#BitstreamVeraSans-Roman-73"/>
      <use x="279.16796875" xlink:href="#BitstreamVeraSans-Roman-68"/>
      <use x="342.546875" xlink:href="#BitstreamVeraSans-Roman-6f"/>
      <use x="403.728515625" xlink:href="#BitstreamVeraSans-Roman-6c"/>
      <use x="431.51171875" xlink:href="#BitstreamVeraSans-Roman-64"/>
      <use x="494.98828125" xlink:href="#BitstreamVeraSans-Roman-20"/>
      <use x="526.775390625" xlink:href="#BitstreamVeraSans-Roman-70"/>
      <use x="590.251953125" xlink:href="#BitstreamVeraSans-Roman-61"/>
      <use x="651.53125" xlink:href="#BitstreamVeraSans-Roman-72"/>
      <use x="692.64453125" xlink:href="#BitstreamVeraSans-Roman-61"/>
      <use x="753.923828125" xlink:href="#BitstreamVeraSans-Roman-6d"/>
      <use x="851.3359375" xlink:href="#BitstreamVeraSans-Roman-65"/>
      <use x="912.859375" xlink:href="#BitstreamVeraSans-Roman-74"/>
      <use x="952.068359375" xlink:href="#BitstreamVeraSans-Roman-65"/>
      <use x="1013.59179688" xlink:href="#BitstreamVeraSans-Roman-72"/>
     </g>
    </g>
   </g>
   <g id="line2d_111">
    <path clip-path="url(#p5e9383af02)" d="M 54.50625 393.507692 
L 779.90625 393.507692 
" style="fill:none;stroke:#ff8c00;stroke-dasharray:6.000000,6.000000;stroke-dashoffset:0.0;stroke-width:2.0;"/>
   </g>
   <g id="PathCollection_1">
    <defs>
     <path d="M 0 4.1833 
C 1.109424 4.1833 2.173559 3.742521 2.95804 2.95804 
C 3.742521 2.173559 4.1833 1.109424 4.1833 0 
C 4.1833 -1.109424 3.742521 -2.173559 2.95804 -2.95804 
C 2.173559 -3.742521 1.109424 -4.1833 0 -4.1833 
C -1.109424 -4.1833 -2.173559 -3.742521 -2.95804 -2.95804 
C -3.742521 -2.173559 -4.1833 -1.109424 -4.1833 0 
C -4.1833 1.109424 -3.742521 2.173559 -2.95804 2.95804 
C -2.173559 3.742521 -1.109424 4.1833 0 4.1833 
z
" id="me0647eeedb" style="stroke:#000000;stroke-width:0.5;"/>
    </defs>
    <g clip-path="url(#p5e9383af02)">
     <use style="fill:#ffe4c4;stroke:#000000;stroke-width:0.5;" x="84.73125" xlink:href="#me0647eeedb" y="414.969230769"/>
     <use style="fill:#ffe4c4;stroke:#000000;stroke-width:0.5;" x="145.18125" xlink:href="#me0647eeedb" y="350.584615385"/>
     <use style="fill:#ffe4c4;stroke:#000000;stroke-width:0.5;" x="205.63125" xlink:href="#me0647eeedb" y="372.046153846"/>
     <use style="fill:#ffe4c4;stroke:#000000;stroke-width:0.5;" x="266.08125" xlink:href="#me0647eeedb" y="393.507692308"/>
     <use style="fill:#ffe4c4;stroke:#000000;stroke-width:0.5;" x="326.53125" xlink:href="#me0647eeedb" y="414.969230769"/>
     <use style="fill:#ffe4c4;stroke:#000000;stroke-width:0.5;" x="386.98125" xlink:href="#me0647eeedb" y="329.123076923"/>
     <use style="fill:#ffe4c4;stroke:#000000;stroke-width:0.5;" x="447.43125" xlink:href="#me0647eeedb" y="350.584615385"/>
     <use style="fill:#ffe4c4;stroke:#000000;stroke-width:0.5;" x="507.88125" xlink:href="#me0647eeedb" y="350.584615385"/>
     <use style="fill:#ffe4c4;stroke:#000000;stroke-width:0.5;" x="568.33125" xlink:href="#me0647eeedb" y="414.969230769"/>
     <use style="fill:#ffe4c4;stroke:#000000;stroke-width:0.5;" x="628.78125" xlink:href="#me0647eeedb" y="393.507692308"/>
     <use style="fill:#ffe4c4;stroke:#000000;stroke-width:0.5;" x="689.23125" xlink:href="#me0647eeedb" y="372.046153846"/>
     <use style="fill:#ffe4c4;stroke:#000000;stroke-width:0.5;" x="749.68125" xlink:href="#me0647eeedb" y="414.969230769"/>
    </g>
   </g>
  </g>
 </g>
 <defs>
  <clipPath id="p5e9383af02">
   <rect height="558.0" width="725.4" x="54.50625" y="7.2"/>
  </clipPath>
 </defs>
</svg>
